<svg xmlns="http://www.w3.org/2000/svg" width="71" height="90" viewBox="0 0 71 90"><defs><style>.a{fill:#fff;}</style></defs><g transform="translate(-749 -5021)"><g transform="translate(200.149 4796.348)"><rect width="2.539" height="37.04" transform="translate(583.082 276.33)"/><path d="M609.511,247.81h-53.66a1.276,1.276,0,0,1-1.27-1.282V225.934a1.276,1.276,0,0,1,1.27-1.282h53.66a1.264,1.264,0,0,1,.949.43l9.07,10.3a1.293,1.293,0,0,1,0,1.7l-9.07,10.3A1.264,1.264,0,0,1,609.511,247.81Zm-52.391-2.564h51.821l7.941-9.015-7.941-9.014H557.121Z"/><path d="M612.852,277.612H559.189a1.265,1.265,0,0,1-.949-.43l-9.069-10.3a1.293,1.293,0,0,1,0-1.7l9.069-10.3a1.265,1.265,0,0,1,.949-.43h53.663a1.276,1.276,0,0,1,1.27,1.282v20.592A1.276,1.276,0,0,1,612.852,277.612Zm-53.093-2.564h51.824V257.021H559.76l-7.94,9.014Z"/><rect width="36.82" height="2.564" transform="translate(565.941 312.089)"/><rect width="2.539" height="9.212" transform="translate(582.793 246.527)"/></g><path class="a" d="M766.089,5111v-2.564h17.142V5073.96H759.337a1.266,1.266,0,0,1-.948-.43l-9.069-10.3a1.293,1.293,0,0,1,0-1.7l9.069-10.3a1.268,1.268,0,0,1,.948-.428h23.6v-6.648H756a1.276,1.276,0,0,1-1.27-1.281v-20.594A1.276,1.276,0,0,1,756,5021h53.66a1.265,1.265,0,0,1,.949.43l9.07,10.3a1.293,1.293,0,0,1,0,1.7l-9.07,10.3a1.265,1.265,0,0,1-.949.43H785.481v6.648H813a1.275,1.275,0,0,1,1.269,1.281v20.592A1.276,1.276,0,0,1,813,5073.96H785.77v34.476h17.139V5111Zm-14.121-48.618,7.939,9.013h51.825v-18.027H759.908Zm5.3-20.79H809.09l7.941-9.015-7.941-9.015H757.269Z"/></g></svg>