<svg xmlns="http://www.w3.org/2000/svg" width="102.001" height="98.001" viewBox="0 0 102.001 98.001"><defs><style>.a{fill:#fff;}</style></defs><g transform="translate(-1563.999 -5021)"><g transform="translate(911.941 4673.722)"><path d="M707.407,445.279H694.534a1.229,1.229,0,0,1-1.231-1.226v-2.832c0-5.93,6.327-10.754,14.1-10.754a1.229,1.229,0,0,1,1.231,1.226v12.36A1.229,1.229,0,0,1,707.407,445.279Zm-11.642-2.452h10.411v-9.863c-5.843.44-10.411,3.976-10.411,8.257Z"/><path d="M694.534,445.279H676.263a1.228,1.228,0,0,1-1.231-1.226v-2.832c0-5.613,5.67-10.237,12.872-10.714V406.555h2.462v25.138a1.229,1.229,0,0,1-1.231,1.226c-6.419,0-11.641,3.724-11.641,8.3v1.606h17.04Z"/><path d="M676.263,445.279H663.39a1.229,1.229,0,0,1-1.231-1.226v-2.832c0-5.613,5.67-10.236,12.872-10.714l-.043-44.519,2.462,0,.043,45.706a1.229,1.229,0,0,1-1.231,1.227c-6.42,0-11.642,3.724-11.642,8.3v1.606h11.642Z"/><path d="M702.346,392.39H676.219a1.228,1.228,0,0,1-1.231-1.226v-5.176a1.228,1.228,0,0,1,1.231-1.226h26.127a1.228,1.228,0,0,1,1.231,1.226v5.176A1.228,1.228,0,0,1,702.346,392.39Zm-24.9-2.452h23.665v-2.724H677.45Z"/><path d="M727.448,414.222a25.358,25.358,0,0,0-25.1-21.833v-2.452A27.822,27.822,0,0,1,729.887,413.9Z"/><path d="M690.365,406.555H687.9a5.2,5.2,0,0,0-10.409,0h-2.462a7.667,7.667,0,0,1,15.334,0Z"/><path d="M671.11,371.02l-2.439-.329a17.539,17.539,0,0,1,16.205-15.053l.162,2.446A15.076,15.076,0,0,0,671.11,371.02Z"/><path d="M702.346,387.214H672.175v-2.452h28.941v-11.7a14.926,14.926,0,0,0-5.635-11.7l1.543-1.911a17.363,17.363,0,0,1,6.554,13.613v12.93A1.228,1.228,0,0,1,702.346,387.214Z"/><path d="M665.18,387.214h-1.472c-2.031,0-4.45-1.018-4.45-5.867h2.462c0,3.416,1.243,3.416,1.988,3.416h1.472Z"/><path d="M677.468,382.572H662.387c-4.779,0-7.935-2.312-9.378-6.871a1.225,1.225,0,0,1,1.023-1.585,5.95,5.95,0,0,0,5.226-5.889A1.228,1.228,0,0,1,660.489,367h9.987v2.452H661.63a8.42,8.42,0,0,1-5.79,6.769c1.226,2.653,3.336,3.9,6.547,3.9h15.081Z"/><path d="M654.182,376.558a1.231,1.231,0,0,1-1.173-.857,24.85,24.85,0,0,1-.95-7.474A1.228,1.228,0,0,1,653.29,367h7.2a1.228,1.228,0,0,1,1.231,1.226,8.411,8.411,0,0,1-7.386,8.322A1.375,1.375,0,0,1,654.182,376.558Zm.359-7.105a23,23,0,0,0,.524,4.441,5.964,5.964,0,0,0,4.065-4.441Z"/><path d="M668.677,395.647a4.723,4.723,0,0,1-4.727-4.709v-9.592h2.462v9.592a2.266,2.266,0,0,0,4.532,0v-9.592h2.462v9.592A4.724,4.724,0,0,1,668.677,395.647Z"/><path d="M678.6,371.784a3.558,3.558,0,1,1,3.574-3.557A3.569,3.569,0,0,1,678.6,371.784Zm0-4.664a1.106,1.106,0,1,0,1.112,1.107A1.11,1.11,0,0,0,678.6,367.12Z"/><path d="M697.481,368.227h-2.462v-8.48a10.048,10.048,0,0,0-8.829-9.943v14.7h-2.462v-16a1.228,1.228,0,0,1,1.231-1.226,12.51,12.51,0,0,1,12.523,12.469Z"/><path d="M723,445.279H707.407a1.229,1.229,0,0,1-1.231-1.226V428.526A16.825,16.825,0,1,1,723,445.279Zm-14.36-2.452H723a14.3,14.3,0,1,0-14.36-14.3Z"/><path d="M739.956,445.279H723a1.226,1.226,0,1,1,0-2.452,14.4,14.4,0,0,0,14.062-11.383,1.229,1.229,0,0,1,1.2-.977h14.561a1.229,1.229,0,0,1,1.231,1.226v2.831C754.059,440.454,747.732,445.279,739.956,445.279Zm-8.22-2.452h8.22c6.419,0,11.641-3.725,11.641-8.3v-1.6H739.238A16.783,16.783,0,0,1,731.736,442.827Z"/></g><path class="a" d="M1634.942,5119H1575.33a1.229,1.229,0,0,1-1.231-1.227v-2.832c0-5.613,5.669-10.235,12.873-10.714l-.037-39.232a1.062,1.062,0,0,1-.005-.11v-3.951h-1.583v3.726a4.728,4.728,0,0,1-9.457,0v-3.726h-.242c-1.906,0-4.157-.9-4.423-5.024-3.067-.829-5.172-3-6.276-6.488a24.88,24.88,0,0,1-.951-7.474,1.229,1.229,0,0,1,1.231-1.226h16.309a17.582,17.582,0,0,1,14.129-11.249v-7.249A1.229,1.229,0,0,1,1596.9,5021a12.51,12.51,0,0,1,12.523,12.468v.078a17.357,17.357,0,0,1,6.1,13.234v16.907a27.83,27.83,0,0,1,26.205,23.231,16.721,16.721,0,0,1,9.929,17.271h13.114a1.229,1.229,0,0,1,1.232,1.227v2.831c0,5.93-6.327,10.755-14.1,10.755Zm15.973-11.484a16.534,16.534,0,0,1-1.43,3.15s0,0,0,0l-.041.068-.027.046a.222.222,0,0,1-.014.022,16.9,16.9,0,0,1-5.705,5.744h8.2c6.418,0,11.642-3.724,11.642-8.3v-1.6H1651.18C1651.1,5106.937,1651.012,5107.228,1650.914,5107.517Zm-30.334-5.27v14.3h14.656l.047,0h.045a.159.159,0,0,0,.027,0,14.439,14.439,0,0,0,11.551-6.391,14.217,14.217,0,0,0,1.88-4.088c.082-.3.155-.594.218-.9,0-.016.006-.029.009-.043a14.356,14.356,0,1,0-28.433-2.875Zm-12.874,12.7v1.606h10.411v-9.861C1612.274,5107.125,1607.706,5110.662,1607.706,5114.942Zm-5.4-34.666v25.139a1.228,1.228,0,0,1-1.231,1.226c-6.418,0-11.641,3.724-11.641,8.3v1.606h15.808v-1.606c0-5.614,5.671-10.236,12.874-10.713v-1.982A16.839,16.839,0,0,1,1639.049,5086a25.385,25.385,0,0,0-24.761-19.89H1589.4l.009,8.589a7.67,7.67,0,0,1,12.9,5.576Zm-12.871,25.138a1.228,1.228,0,0,1-1.231,1.227c-6.42,0-11.643,3.724-11.643,8.3v1.606h10.411v-1.606c0-5.613,5.671-10.236,12.873-10.714v-23.952a5.2,5.2,0,0,0-10.41,0h-.023Zm-11.082-40.753a2.266,2.266,0,0,0,4.532,0v-8.367h-4.532Zm11.042-1h23.662v-2.725h-23.664Zm-4.048-5.176h27.71v-11.7a14.9,14.9,0,0,0-3.634-9.778v4.946h-2.463v-8.48a10.047,10.047,0,0,0-8.828-9.942v14.7h-2.463v-6.276a15.075,15.075,0,0,0-12.617,12.793l-2.438-.33q.085-.626.214-1.238h-7.256a8.421,8.421,0,0,1-5.79,6.769c1.226,2.653,3.335,3.9,6.547,3.9h15.081v2.451h-4.062Zm-9.7,0h.242v-2.19h-1.562q-.306,0-.6-.013C1573.992,5058.484,1575.006,5058.484,1575.649,5058.484Zm-8.642-10.869a5.971,5.971,0,0,0,3.678-3.255.054.054,0,0,1,.006-.014c0-.012.009-.023.014-.035l.011-.026c.005-.011.01-.023.014-.033s.012-.029.018-.042l.008-.019c.006-.014.011-.028.018-.042l0-.012a5.842,5.842,0,0,0,.292-.962h-4.589A22.96,22.96,0,0,0,1567.007,5047.615Zm19.966-5.667a3.574,3.574,0,1,1,3.574,3.557A3.571,3.571,0,0,1,1586.972,5041.949Zm2.463,0a1.111,1.111,0,1,0,1.111-1.106A1.11,1.11,0,0,0,1589.435,5041.949Z"/></g></svg>