<svg xmlns="http://www.w3.org/2000/svg" width="56.092" height="100.223" viewBox="0 0 56.092 100.223"><defs><style>.a{fill-rule:evenodd;}.b{fill:#003d2a;}</style></defs><g transform="translate(-1319.854 -2708.18)"><path class="a" d="M1358.394,2731.842l.007-.012,0,.03-.01-.018c-.283.475-.717.911-.31,1.748,1.3.386,2.707-.079,4.4.039-.383-1.743.5-3.406-.9-4.8a11.777,11.777,0,0,1-3.375.588C1357.209,2730.311,1357.953,2731.065,1358.394,2731.842Zm2.89-2c-.1.673-.16,1.107-.223,1.542l0-.032c-.336,1-1.183.106-1.753.758C1358.982,2730.135,1360.519,2730.54,1361.285,2729.838Z"/><path class="a" d="M1339.645,2722.292c.922-.531.265-1.921,1.339-2.424,1.768.574,3.3,1.772,5.173,2.16a2.292,2.292,0,0,1-.831,2C1343.3,2723.992,1341.715,2722.319,1339.645,2722.292Z"/><path class="a" d="M1375.321,2719.287c-1.288,1.6-3.345,1-4.955,1.771l2.223.178c-1.131.191-2.235.729-3.335.187a3.415,3.415,0,0,1-.485-2.125,10.67,10.67,0,0,0,2.538.118C1372.656,2719.506,1373.972,2718.818,1375.321,2719.287Z"/><path class="a" d="M1346.879,2713.642a19.359,19.359,0,0,0,4.109,3.082c.853-.2,1.151-.723,1.392-1.516a13.723,13.723,0,0,0-4.652-3.347A4.2,4.2,0,0,1,1346.879,2713.642Zm.912-.42a6.325,6.325,0,0,1,3.545,2.484A6.713,6.713,0,0,1,1347.79,2713.222Z"/><path class="a" d="M1360.572,2721.138c.55-.035,1.1.089,1.173.685.138,1.16.146,2.335.208,3.5l-.283.059-1.06-1.961A1.857,1.857,0,0,0,1360.572,2721.138Z"/><path class="a" d="M1360.551,2721.1c.008.011.013.022.021.033h-.017Z"/><path class="a" d="M1357.606,2721.432a5.891,5.891,0,0,0,.087,2.214A1.457,1.457,0,0,1,1357.606,2721.432Z"/><path class="a" d="M1358.657,2725.819c.116-.584.387-.784.932-.7C1359.622,2725.849,1359.2,2725.833,1358.657,2725.819Z"/><path class="a" d="M1358.879,2721.949c-.615.217-.879-.256-1.225-.531C1358.123,2721.388,1358.649,2721.215,1358.879,2721.949Z"/><path class="a" d="M1360.49,2721.164h0C1360.436,2721.213,1360.453,2721.2,1360.49,2721.164Z"/><path class="a" d="M1360.49,2721.164l.06-.057s0,.032,0,.032l-.064.024Z"/><path class="a" d="M1356.1,2723.948h0l.012,0h.015Z"/><path class="a" d="M1357.322,2726.271l0,0-.026,0Z"/><path class="a" d="M1350.282,2730.351a2.622,2.622,0,0,0,2.257-.507,1.767,1.767,0,0,0,2.153.094c.244.472.266.958-.352,1.051a27.6,27.6,0,0,1-3.22.259C1350.585,2731.263,1350.345,2730.851,1350.282,2730.351Z"/><path class="a" d="M1354.689,2729.9l.023.023a.168.168,0,0,1-.019.011l0-.009C1354.689,2729.92,1354.689,2729.912,1354.689,2729.9Z"/><path class="a" d="M1353.668,2728.175c.254-.443.218-1.1.995-1.606.01,1.265.018,2.3.026,3.333A3.032,3.032,0,0,1,1353.668,2728.175Z"/><path class="a" d="M1351.334,2726.863c.374.06.7-.011,1.006.4C1351.814,2727.457,1351.533,2727.375,1351.334,2726.863Z"/><path class="a" d="M1350.086,2727.518c.19.157.46.362.647.513h0s-.075-.07-.075-.07l.035-.081a.657.657,0,0,0-.087.068c.082.232.193.48.3.784C1350.176,2728.533,1350.165,2728.02,1350.086,2727.518Z"/><path class="a" d="M1353.011,2721.905l-.049-.079.025-.005Z"/><path class="a" d="M1346.635,2738.672l.307.083c.026-.1.052-.2.077-.3l.025-.014.017-.012c1.057.3,1.48-.258,1.7-1.1.014-.056.027-.112.04-.171a19.327,19.327,0,0,0-1.662,1.31c-.011,0-.023.012-.023.012v0h0c0,.007-.079-.022-.081-.014s-.04-.011-.041-.007c-.026.1-.235.253-.336.226l-.046-.015-.079-.021h0c0,.006.04.027.041.034l.024,0C1346.6,2738.675,1346.627,2738.676,1346.635,2738.672Z"/><path class="a" d="M1354.326,2764.421a1.8,1.8,0,0,0-.04-.216c-.009-.035-.06-.059-.092-.087h0l.131.3h0Z"/><path class="a" d="M1354.326,2764.421h0c0,.029.008.058.012.087s0,.053.005.079c.005-.03.011-.06.015-.09Z"/><path class="a" d="M1348.366,2721.4c0,.006,0,.012.005.019h0Z"/><path class="a" d="M1347.751,2713.076l0,0-.008-.009Z"/><path class="a" d="M1367.867,2727.25l-.016-.007c0,.006,0,.012,0,.018Z"/><path class="a" d="M1366.67,2734.407l-.008-.015-.006.007Z"/><path class="a" d="M1355.782,2724.413l-.012,0-.007.013Z"/><path class="a" d="M1363.265,2715.041c0,.005,0,.01,0,.015h.011Z"/><path class="a" d="M1354.47,2715.91c0,.006,0,.011,0,.017l.012,0Z"/><path class="a" d="M1375.313,2720.713c0,.007,0,.013,0,.02l.008,0Z"/><path class="a" d="M1351.75,2779.084c-.359-1.285-.942-1.954-2.124-2-.844-.035-1.682-.187-2.525-.269a5.057,5.057,0,0,0-1.365-.047c-.256.047-.743-.667-.85.205-.013.1-.742.24-1.1.164-2.129-.457-4.281-.856-6.355-1.5s-4.514-.459-6.021-2.473c-1.931-.535-3.858-1.083-5.8-1.589a1.368,1.368,0,0,0-.813.178.546.546,0,0,0-.2.442.48.48,0,0,0,.281.322c2.554.945,5.091,1.941,7.675,2.8a89.722,89.722,0,0,0,17.139,3.584C1350.318,2778.973,1350.941,2779.011,1351.75,2779.084Z"/><path class="a" d="M1345.455,2732.339c.192.074.531-.231.831-.374-1.1-.619-2.077-1.184-3.07-1.711a1.7,1.7,0,0,0-.958-.277,5.719,5.719,0,0,1-3.291-.691c-1.093-.464-2.216-.855-3.327-1.28l-.213.275c.233.293.41.75.709.853,1.556.535,3.143.985,4.722,1.453.423.126,1.047.075,1.25.347C1342.966,2732.086,1344.334,2731.907,1345.455,2732.339Z"/><path class="a" d="M1348.814,2718.993c.462-1.031-.481-1.339-1.059-1.831-.883-.751-1.749-1.522-2.622-2.284l.078-.107-.093.094.012.018c-.937,1.185-.95,1.2.022,2.178a20.581,20.581,0,0,0,1.637,1.48C1347.9,2719.437,1348.55,2719.583,1348.814,2718.993Z"/><path class="a" d="M1344.675,2780.553a2.7,2.7,0,0,0-1.516-.047c-.969.126-1.286.72-1.02,1.728a1.458,1.458,0,0,1,1.963-.924,22.027,22.027,0,0,0,2.723.782c1.514.151,3.05.084,4.577.109.042-.152.082-.3.124-.455a10.771,10.771,0,0,0-1.836-.466C1348,2781.149,1346.274,2781.447,1344.675,2780.553Z"/><path class="a" d="M1342.845,2726.887a1.2,1.2,0,0,0-.171-1.125,9.007,9.007,0,0,0-4.7-1.857l1.72,1.951.014-.006c.457.282.941.535,1.387.829.031.02.065.039.1.06a5,5,0,0,1,.456.349C1342.223,2727.593,1342.627,2727.367,1342.845,2726.887Z"/><path class="a" d="M1353.783,2709.569c-.225.3-.625.6-.631.9a3.673,3.673,0,0,0,.448,1.267c.628,1.574,1.523,2.758,3.486,2.378-.866-1.329-1.721-2.666-2.61-3.98A3.155,3.155,0,0,0,1353.783,2709.569Z"/><path class="a" d="M1361.468,2714.137l.271-.33-1.039-1.218.028.026-.014-.024a1.541,1.541,0,0,0,1.818-.7c.007-.011.013-.026.02-.038a2.926,2.926,0,0,0,.151-.283c.052-.115.124-.281.168-.409.153-.448.4-.927.58-1.356l.312.171c-.175.432-.294.764-.431,1.125a1.261,1.261,0,0,0,.3,1.543,9.223,9.223,0,0,1,1,1.3c.153-.995.349-1.98.427-2.981.035-.451-.044-1.195-.309-1.324a7.868,7.868,0,0,0-2.068-.422l.018-.01c-.22-.043-.437-.106-.658-.127-1.372-.129-1.379-.107-1.414,1.3-.015.6-.1,1.2-.153,1.8l-.009-.014c-.255-1.1-.512-2.2-.793-3.407-1.162.939-1.061,2.136-1.277,3.217C1359.455,2712.636,1360.114,2713.951,1361.468,2714.137Z"/><path class="a" d="M1326.4,2796.1c1.191-1.047,2.736-.993,4.15-1.344a3.009,3.009,0,0,0-3.515.052,4.009,4.009,0,0,1-2.408.583,5.163,5.163,0,0,0-3.635,1.061c1.9-.083,3.411-.146,4.92-.22A.851.851,0,0,0,1326.4,2796.1Z"/><path class="a" d="M1330.574,2794.754l-.025.005.007,0Z"/><path class="a" d="M1371.616,2725.84c-.344-.014-.7.37-1.056.571.326.244.631.661.982.7,1.247.146,2.508.187,3.766.209.21,0,.426-.279.639-.429a5.386,5.386,0,0,0-.592-.513,2.744,2.744,0,0,0-.657-.184C1373.78,2726.08,1372.7,2725.885,1371.616,2725.84Z"/><path class="a" d="M1368.586,2712.283a13.936,13.936,0,0,0-1.793,1.57l.019-.011c-.116.144-.356.38-.329.417.348.461.726.921,1,1.245q1.21-1.172,2.3-2.21h0c.014.006.039-.019.054-.015-.01-.009-.016-.031-.026-.04l-.018.007c.022-.305.043-.614.065-.919C1369.431,2712.3,1368.884,2712.094,1368.586,2712.283Z"/><path class="a" d="M1365.083,2748.9c-.547-.5-1.179-.9-1.691-1.43a4.7,4.7,0,0,0-2.137-1.273c-1.179-.355-2.368-.959-2.416-2.51l.426-.468-.429.462a.852.852,0,0,0-.111,1.446,19.151,19.151,0,0,0,1.9,1.417c.638.447,1.305.854,1.943,1.3.994.7,1.974,1.415,2.96,2.123A1.318,1.318,0,0,0,1365.083,2748.9Z"/><path class="a" d="M1324.793,2801.541c1.277-.843,2.547-1.7,3.793-2.584.18-.128.224-.442.322-.684a2.233,2.233,0,0,1-2.209.425c-.551-.244-.745.1-.906.485l-.048-.036-.1.372.061-.008c-1.054,1.008-2.091,2.021-3.144,3.028A6.268,6.268,0,0,0,1324.793,2801.541Z"/><path class="a" d="M1331.034,2802.344h0l.011.015c.032-.119.1-.361.1-.361l-.032-.009c-.011,0-.019-.018-.028-.029a.087.087,0,0,0-.047-.032.715.715,0,0,0-.117-.008.255.255,0,0,1-.07,0l-.066-.018s.006.014.009.021c-.978-.726-1,.192-1.252.722l-.009-.013c-.034.123-.067.247-.1.369l.015-.009c-.358,1.246-1.338,2.355-.649,3.89Q1329.915,2804.612,1331.034,2802.344Z"/><path class="a" d="M1331.044,2802.361l-.01-.018h0Z"/><path class="a" d="M1350.013,2791.379l-.007.014.018,0Z"/><path class="a" d="M1343.362,2791.044c.127.108.245.278.385.3,1.944.284,3.889.56,5.84.779.111.013.277-.466.418-.728A14.649,14.649,0,0,0,1343.362,2791.044Z"/><path class="a" d="M1352.756,2737.1l-.017.01.017,0Z"/><path class="a" d="M1354.542,2740.557a4.309,4.309,0,0,0,.969.675,7.142,7.142,0,0,0-2.021-4.292l.013.022-.747.146a3.2,3.2,0,0,0,.184,1.12A22.334,22.334,0,0,0,1354.542,2740.557Z"/><path class="a" d="M1346.9,2729.085c.3-.023.6-.07.9-.107-.145-.28-.22-.655-.449-.82-.595-.429-1.258-.766-1.894-1.14l.017-.015-.022.012h0l-.184.106.184-.106-.556-.258q.072.249.142.5l-.027.016.028-.013a2.244,2.244,0,0,0,1.766,2.583l-.764-.826A8.451,8.451,0,0,0,1346.9,2729.085Z"/><path class="a" d="M1346.8,2729.84l.028.03h.028a.092.092,0,0,1-.008-.013C1346.83,2729.851,1346.817,2729.845,1346.8,2729.84Z"/><path class="a" d="M1347.346,2785.91c.773.243,1.534.547,2.323.715,1.424.3,1.454.247,1.332-1.134l-3.572.048Z"/><path class="a" d="M1369.473,2746.156c-.159-.218-.247-.468-.42-.556-1.35-.7-2.716-1.369-4.077-2.047A5.845,5.845,0,0,0,1369.473,2746.156Z"/><path class="a" d="M1323.7,2790.827c.023-.032-.167-.309-.294-.344-1.194-.321-2.4-.647-3.553.032.008.154.017.309.025.463,1.123.086,2.246.188,3.371.238C1323.4,2791.223,1323.584,2790.988,1323.7,2790.827Z"/><path class="a" d="M1335.4,2808.4a11.229,11.229,0,0,0-.481-5.731A15.444,15.444,0,0,0,1335.4,2808.4Z"/><path class="a" d="M1335.949,2788.268c-1.464.695-2.587,1.219-3.7,1.771-.1.05-.11.278-.164.425C1333.918,2791,1334.893,2789.973,1335.949,2788.268Z"/><path class="a" d="M1338.666,2795.146a7,7,0,0,1,1.553-.735,6.222,6.222,0,0,1,1.659.214,2.232,2.232,0,0,0-2.418-1.1C1338.782,2793.67,1338.537,2794.282,1338.666,2795.146Z"/><path class="a" d="M1341.305,2785.58c.653-.1,1.33-.186,2-.305.427-.075.846-.193,1.268-.294a9.715,9.715,0,0,0-1.52-.656C1341.8,2784.015,1341.535,2784.253,1341.305,2785.58Z"/><path class="a" d="M1328.255,2786.813a11.419,11.419,0,0,0-1.986.074c.26.313.51.868.785.881a28.883,28.883,0,0,0,3.12-.147A4,4,0,0,0,1328.255,2786.813Z"/><path class="a" d="M1326.243,2786.889h.025l-.007-.009Z"/><path class="a" d="M1333.812,2748.893l-3.994-.312q-.022.23-.043.459a10.181,10.181,0,0,0,3.973.38Q1333.779,2749.156,1333.812,2748.893Z"/><path class="a" d="M1337.649,2780.221l-.167-.192-3.292,1.846.126.254,2.122-.011Z"/><path class="a" d="M1336.445,2782.118h-.006l0,.005Z"/><path class="a" d="M1337.789,2735.823l-4.593-1.5-.16.315a12.047,12.047,0,0,0,4.645,1.511C1337.717,2736.042,1337.753,2735.933,1337.789,2735.823Z"/><path class="a" d="M1348.652,2796.676l-3.2-1.148c-.05.144-.1.288-.148.432C1346.256,2796.727,1347.246,2797.37,1348.652,2796.676Z"/><path class="a" d="M1360.27,2741.37c-.015,1,.858,1.2,1.586,1.657l.711-.117a2.3,2.3,0,0,0-.31-.674c-.376-.394-.8-.742-1.216-1.1a5.215,5.215,0,0,0-.469-.325C1360.467,2741,1360.273,2741.183,1360.27,2741.37Z"/><path class="a" d="M1335.474,2797.383a.843.843,0,0,0-.394.131c-.444.295-.405,1-.635,1.475l-.005-.024-.028.016c-.1-.026-.2-.049-.3-.076a2.052,2.052,0,0,1-.127.294l-.042-.011,0,.016c0-.007,0-.014.006-.022s.029.019.023.023c-.031.115-.041.235-.072.35h.028l.67.17.008.018c0-.006,0-.012,0-.018s.013-.011.019-.017c.111-.106.249-.2.359-.309l.009-.008c.015-.015.028-.031.043-.046s.016-.017.023-.025.022-.031.034-.047.014-.018.02-.029a.442.442,0,0,0,.039-.08c.327-.932.775-.845,1.351-.234a8.24,8.24,0,0,0,.682.558,3.561,3.561,0,0,0-.208-.671C1336.574,2798.222,1336.4,2797.29,1335.474,2797.383Z"/><path class="a" d="M1321.142,2785.509c1.388.363,2.595.941,3.957.7C1323,2785.166,1322.269,2785.046,1321.142,2785.509Z"/><path class="a" d="M1328.943,2798.223l-.022.012c-.005.012-.009.025-.014.038l.029-.019C1328.939,2798.243,1328.941,2798.234,1328.943,2798.223Z"/><path class="a" d="M1331.486,2796.484c-.191-.1-.38-.273-.574-.278-1.138-.03-1.765.631-1.969,2.017.748-.4,1.505-.79,2.236-1.222C1331.332,2796.912,1331.386,2796.66,1331.486,2796.484Z"/><path class="a" d="M1327.461,2776.555c.034-.156.067-.311.1-.467-.786-.261-1.556-.588-2.361-.769-1.3-.293-1.333-.237-1.591,1.161C1324.874,2774.905,1326.174,2776.351,1327.461,2776.555Z"/><path class="a" d="M1343.318,2791.023c0,.009.007.017.01.025l.033,0-.011-.01Z"/><path class="a" d="M1340.794,2789.9c-.35.021-.661.664-.99,1.023l.22.334c1.081-.963,2.188-.583,3.295-.235C1342.861,2789.825,1341.77,2789.841,1340.794,2789.9Z"/><path class="a" d="M1329.99,2782.052c.676.188,1.372.306,2.385.517a2.5,2.5,0,0,0-2.242-1.286c-.158-.025-.353.18-.532.28C1329.729,2781.732,1329.827,2782.008,1329.99,2782.052Z"/><path class="a" d="M1328.851,2777.744l4.02.868C1332.012,2777.538,1330.632,2777.154,1328.851,2777.744Z"/><path class="a" d="M1336.575,2750.111c.778-.081,1.569-.028,2.355-.041.343-.006.685-.032,1.286-.061-1.7-1.062-3.214-.592-4.706-.423C1335.68,2750.134,1336.053,2750.165,1336.575,2750.111Z"/><path class="a" d="M1335.49,2749.59l.02,0a.029.029,0,0,0,0-.007Z"/><path class="a" d="M1322.525,2779.988c1.733.9,2.587,1.047,3.965.615C1325.064,2780.336,1323.979,2779.666,1322.525,2779.988Z"/><path class="a" d="M1333,2798.306a6.561,6.561,0,0,0,.41-.955,2.9,2.9,0,0,0-1.067.208,5.346,5.346,0,0,0-.923,1.032c.066.219.094.565.192.586a1,1,0,0,0,.717-.125A2.575,2.575,0,0,0,1333,2798.306Z"/><path class="a" d="M1351.6,2774.76l.01.019c0-.024,0-.048.007-.072Z"/><path class="a" d="M1353.289,2768.972c-.437,1.01-.906,2.013-1.343,3.023,0-.006-.035-.021-.034-.026l-.015.059h.053c-.057.223-.1.449-.156.671l0-.016c-.06.674-.117,1.35-.178,2.025q.911-2.852,1.823-5.7Z"/><path class="a" d="M1329.756,2760.337c-.437,1.01-.906,2.012-1.343,3.022,0-.006-.035-.021-.034-.026l-.016.059h.053c-.057.223-.1.449-.155.671l0-.016c-.06.674-.117,1.35-.178,2.025q.911-2.853,1.823-5.7Z"/><path class="a" d="M1336.443,2745.647l3.738.35A3.37,3.37,0,0,0,1336.443,2745.647Z"/><path class="a" d="M1355.4,2749.293a4.124,4.124,0,0,1-.032-1.594c-1.31,1.169-1.156,1.606,1.213,2.728C1356.169,2750.056,1355.6,2749.754,1355.4,2749.293Z"/><path class="a" d="M1340.53,2799.579l2.524.829c-.66-.762-1.342-1.447-2.376-1.3Z"/><path class="a" d="M1330.122,2743.178l5.221,1.379A14.236,14.236,0,0,0,1330.122,2743.178Z"/><path class="a" d="M1335.342,2744.563l.05.027.017-.009Z"/><path class="a" d="M1347.223,2749.081l-2.219.978C1345.8,2749.911,1347.148,2750.023,1347.223,2749.081Z"/><path class="a" d="M1365.76,2710.764l-.644,2.411C1366.132,2712.045,1366.132,2712.045,1365.76,2710.764Z"/><path class="a" d="M1339.485,2797.463l-.047-.013.028.023Z"/><path class="a" d="M1337.213,2797.894c.191-.664.559-1.013,1.318-.721.294.113.6.188.907.276a3.489,3.489,0,0,0-.9-.708,6.425,6.425,0,0,0-1.42-.2Q1337.164,2797.22,1337.213,2797.894Z"/><path class="a" d="M1337.216,2797.932c0-.012,0-.025,0-.038,0,.016-.011.031-.015.048Z"/><path class="a" d="M1349.7,2744.457c0,.009,0,.016,0,.025l.014-.006Z"/><path class="a" d="M1350.294,2746.069a1.444,1.444,0,0,1-.6-1.587c-.566.208-.864.562-.453,1.126.379.52.841.98,1.267,1.467A.931.931,0,0,0,1350.294,2746.069Z"/><path class="a" d="M1360.053,2754.837l-1.839-1.451-.245.3,1.778,1.387Z"/><path class="a" d="M1352.026,2742.973l-1.124,1.1.411.386,1-1.223Z"/><path class="a" d="M1346.344,2771.814a7.293,7.293,0,0,0-.883.258c.057.123.125.357.171.353a10.156,10.156,0,0,0,1.039-.191C1346.507,2772.016,1346.405,2771.8,1346.344,2771.814Z"/><path class="a" d="M1335.787,2737.235l.122.05c.016.006.033.01.049.015l-.032-.028Z"/><path class="a" d="M1332.673,2736.4l3.117.824a25.417,25.417,0,0,1-2.987-1.217C1332.759,2736.138,1332.681,2736.4,1332.673,2736.4Z"/><path class="a" d="M1348.8,2737.123c0,.01,0,.02-.007.03l.017-.012Z"/><path class="a" d="M1368.4,2741.964l.691-.092c-.11-.154-.191-.381-.341-.443a1.517,1.517,0,0,0-.609.011Z"/><path class="a" d="M1355.352,2754.473c.233.74.3,1.559,1.089,2.034q-.38-1.088-.758-2.178Z"/><path class="a" d="M1354.437,2750.689c-1.286-.668-1.357-.649-1.868.357Z"/><path class="a" d="M1339.168,2803.713q-.424-.779-.849-1.559l-.4.3Z"/><path class="a" d="M1346.632,2764.508c-.133.489-.268.977-.39,1.468-.01.041.1.114.071.239l.493-1.846C1346.779,2764.47,1346.643,2764.472,1346.632,2764.508Z"/><path class="a" d="M1362.118,2750.92a16.832,16.832,0,0,1-2.323-1.013c-.044.122-.12.368-.13.365Z"/><path class="a" d="M1337.289,2767.427c-.089.332-.088.332-.088.332l1.748.461s0,0,.087-.331Z"/><path class="a" d="M1345.609,2802.257l-1.134-1.22-.3.363Z"/><path class="a" d="M1362.87,2755.5l-1.215-.754.894,1.111Z"/><path class="a" d="M1348.885,2750.593c.082.116.14.279.252.334a1.655,1.655,0,0,0,.564.021c-.178-.2-.256-.359-.375-.4A1.076,1.076,0,0,0,1348.885,2750.593Z"/><path class="a" d="M1340.491,2736.691a11.945,11.945,0,0,1,2.042,1,3.772,3.772,0,0,1,.161-.414Z"/><path class="a" d="M1365.016,2752.24l-1.434-.549,1.28.83Z"/><path class="a" d="M1344.048,2768.857c-.111.326-.089.158-.123.2.383.123.776.206,1.159.329.017-.065-.026.1.062-.235Z"/><path class="a" d="M1336.618,2791.134a1.958,1.958,0,0,0,.378-.2.474.474,0,0,0-.1-.253,2.038,2.038,0,0,0-.407.125Z"/><path class="a" d="M1347.649,2742.086a.415.415,0,0,0-.161.014c.266-.97.606-1.936-.664-2.545-.122-.059-.148-.314-.176-.569-.011-.105-.022-.21-.04-.3-.809.217-.967.685-.516,1.368s.926,1.367,1.39,2.049c.279.18.556.362.842.529a2.546,2.546,0,0,0,.171-.229C1348.214,2742.3,1347.933,2742.187,1347.649,2742.086Z"/><path class="a" d="M1338.482,2782.487a1.836,1.836,0,0,0,.46.341c.11.038.274-.078.593-.185a2.7,2.7,0,0,0-.661-.366C1338.759,2782.256,1338.613,2782.411,1338.482,2782.487Z"/><path class="a" d="M1335.091,2731.013a5.639,5.639,0,0,0-.548-.352c-.039-.02-.142.085-.216.133a4.489,4.489,0,0,0,.478.356C1334.848,2731.174,1334.96,2731.079,1335.091,2731.013Z"/><path class="a" d="M1357.162,2739.4l.242.2.281-.12a1.7,1.7,0,0,0-.309-.265C1357.348,2739.2,1357.236,2739.335,1357.162,2739.4Z"/><path class="a" d="M1339.152,2740.949l.048.043.073.043-.054-.056Z"/><path class="a" d="M1338.087,2740.473l1.065.476-.85-.771Z"/><path class="a" d="M1345.785,2752.569c.1-.1.231-.172.222-.223a2.019,2.019,0,0,0-.159-.424c-.09.082-.256.167-.254.247C1345.6,2752.3,1345.712,2752.427,1345.785,2752.569Z"/><path class="a" d="M1358.332,2712.021l.06-.036,0-.009-.015-.01Z"/><path class="a" d="M1357.617,2712.867l.715-.846-.945.565Z"/><path class="a" d="M1328.813,2748.914q-.118.441-.236.882s0,0,.02.008c.1-.288.214-.572.313-.86C1328.872,2748.933,1328.812,2748.916,1328.813,2748.914Z"/><path class="a" d="M1335.809,2764.664q-.049.412-.1.825.119-.374.238-.748Z"/><path class="a" d="M1362.4,2708.371l-.251-.191-.239.173c.083.063.162.171.249.178S1362.323,2708.429,1362.4,2708.371Z"/><path class="a" d="M1335.983,2784.344h0l-.135-.256c-.043.033-.128.079-.122.1a1.881,1.881,0,0,0,.128.256l.129-.095Z"/><path class="a" d="M1350.042,2741.3l.394-.19c-.079-.058-.162-.167-.235-.161a1.937,1.937,0,0,0-.439.138Z"/><path class="a" d="M1353.592,2765.369h0l-.133-.264c-.073.056-.2.106-.205.168-.008.083.076.175.121.263l.217-.167Z"/><path class="a" d="M1333.576,2792.59h0l.124.085a1.718,1.718,0,0,0,.107-.234c0-.014-.077-.053-.118-.08Q1333.632,2792.476,1333.576,2792.59Z"/><path class="a" d="M1327.494,2757.7l-.156.243c0,.052.008.1.012.157a1.822,1.822,0,0,0,.161-.248C1327.531,2757.818,1327.5,2757.756,1327.494,2757.7Z"/><path class="a" d="M1333.5,2740.276c-.036-.029-.106-.015-.161-.02l.114.177.165.016A.672.672,0,0,0,1333.5,2740.276Z"/><path class="a" d="M1359.5,2753.072q-.348-.6-.694-1.2C1358.794,2752.411,1358.908,2752.879,1359.5,2753.072Z"/><path class="a" d="M1358.809,2751.868c0-.012,0-.022,0-.034-.043-.1-.085-.2-.128-.3l.112.307Z"/><path class="a" d="M1340.353,2736.651c0,.011.007.022.012.033l.12.032-.1-.047Z"/><path class="a" d="M1340.168,2736.252a1.5,1.5,0,0,0-.488-.185,2.118,2.118,0,0,0,.285.365,1.964,1.964,0,0,0,.388.219A.973.973,0,0,0,1340.168,2736.252Z"/><path class="a" d="M1357.516,2710.9c.014.051.011.124.045.148s.1,0,.155,0l-.071-.243Z"/><path class="a" d="M1347.186,2732.471l.03-.021c0-.013.006-.025.01-.039l-.026.018C1347.194,2732.443,1347.191,2732.458,1347.186,2732.471Z"/><path class="a" d="M1346.546,2733.157a1.768,1.768,0,0,0,.467-.268,1.158,1.158,0,0,0,.173-.419,2.524,2.524,0,0,0-.369.283A2.73,2.73,0,0,0,1346.546,2733.157Z"/><path class="a" d="M1357.114,2714.114l-.028,0,0,.006q-.015.712-.03,1.424l.013.013.009-.023Q1357.1,2714.827,1357.114,2714.114Z"/><path class="a" d="M1357.936,2713.661l.158-.171c-.043,0-.1-.013-.122.008S1357.95,2713.585,1357.936,2713.661Z"/><path class="a" d="M1335.957,2737.3a1.881,1.881,0,0,0,.228.185,2.381,2.381,0,0,0,.3.14,1.89,1.89,0,0,0-.262-.228A1.219,1.219,0,0,0,1335.957,2737.3Z"/><path class="a" d="M1353.155,2747.005c-.031-.035-.057-.094-.093-.1s-.095.031-.177.061Z"/><path class="a" d="M1363.49,2751.656l.091.035c-.024-.016-.047-.038-.072-.053a6.407,6.407,0,0,0-1.266-.684l-.125-.033a.819.819,0,0,1,.105.052C1362.646,2751.2,1363.068,2751.43,1363.49,2751.656Z"/><path class="a" d="M1353.456,2745.109l.044.015-.026-.026Z"/><path class="a" d="M1353.5,2745.124a1.639,1.639,0,0,0,.219.2,2.012,2.012,0,0,0,.3.144,1.9,1.9,0,0,0-.251-.233A1.308,1.308,0,0,0,1353.5,2745.124Z"/><path class="a" d="M1339.232,2803.864c0-.029,0-.058,0-.087l-.063-.064.041.075Z"/><path class="a" d="M1339.324,2804.164c-.03-.1-.062-.2-.092-.3a1.539,1.539,0,0,0,.01.207C1339.247,2804.1,1339.3,2804.132,1339.324,2804.164Z"/><path class="a" d="M1365.259,2741.418l-.07-.065-.017.1Z"/><path class="a" d="M1339.273,2741.036a1.939,1.939,0,0,0,.18.173c.029.024.089.01.135.013Z"/><path class="a" d="M1341.429,2734.329l-.32.032c.066.008.132.016.2.017C1341.348,2734.379,1341.388,2734.346,1341.429,2734.329Z"/><path class="a" d="M1341.109,2734.361l-.118-.014-.433.1.444-.074Z"/><path class="a" d="M1345.185,2774.241l.242-.377.423-.254.054-.027-.059.02-.429.242Z"/><path class="a" d="M1339.5,2800.719a1.847,1.847,0,0,0,.078.25c0-.124,0-.248,0-.372C1339.55,2800.637,1339.5,2800.683,1339.5,2800.719Z"/><path class="a" d="M1354.367,2764.955c-.008-.122-.016-.244-.024-.367a2.263,2.263,0,0,0-.032.241C1354.309,2764.869,1354.347,2764.913,1354.367,2764.955Z"/><path class="a" d="M1339.958,2805.536c-.02-.028-.073-.033-.111-.049l.218.234A1.806,1.806,0,0,0,1339.958,2805.536Z"/><path class="a" d="M1342.971,2795.381l.107.067,0-.1Z"/><path class="a" d="M1341.413,2741.332l-.039.083.113,0Z"/><path class="a" d="M1364.683,2715.069l.018-.01q-.03-.541-.06-1.083l-.017-.022c0,.01,0,.021,0,.032Q1364.651,2714.527,1364.683,2715.069Z"/><path class="a" d="M1329.09,2769.545q-.085.322-.171.644l.009.016q.091-.334.181-.67Z"/><path class="a" d="M1326.521,2791.218c.772.143,1.541.308,2.317.408.147.019.327-.221.492-.342-.138-.15-.249-.372-.42-.437a2.5,2.5,0,0,0-2.4.357l-.187.273Z"/><path class="a" d="M1364.935,2743.532l.041.02c-.005-.011-.013-.022-.018-.033l-.583-.506-.009,0Z"/><path class="a" d="M1367.025,2750.448l-.113-.073.095.083Z"/><path class="a" d="M1368.346,2734.836c.377.448.679,1.16,1.146,1.293a37.246,37.246,0,0,0,4.349.823c.227.036.49-.152.737-.236-.147-.208-.255-.549-.446-.606-1.892-.56-3.8-1.073-5.7-1.6l-.014-.021q-.047.177-.094.354Z"/><path class="a" d="M1355.044,2751.2l.148.085-.128-.1-.594-.507-.034.006.013.007Z"/><path class="a" d="M1340.251,2806.553l.018-.01-.146-.759-.058-.063.038.073Q1340.177,2806.174,1340.251,2806.553Z"/><path class="a" d="M1353.439,2753.253l-.251-.43-.019.011c.084.143.168.286.251.429l.125.074Z"/><path class="a" d="M1371.483,2713.662l-.031.006.041.011Z"/><path class="a" d="M1339.659,2801.277c-.02-.057-.039-.115-.058-.172a.272.272,0,0,0,0,.074A.326.326,0,0,0,1339.659,2801.277Z"/><path class="a" d="M1339.6,2801.1c0-.022,0-.044,0-.066l-.024-.071c0,.028,0,.055,0,.082Z"/><path class="a" d="M1334.114,2798.884c-.006-.019-.012-.038-.019-.058a.246.246,0,0,0,0-.064.366.366,0,0,0-.049-.1l.052.163c0,.023,0,.047,0,.071l.019,0c0-.006,0-.011,0-.018Z"/><path class="a" d="M1360.113,2753.606l.578.507.907.6.056.034-.038-.047-.907-.594-.578-.508-.593-.508c-.013,0-.023-.01-.036-.014l.016.027Z"/><path class="a" d="M1370.4,2713.719l-.034-.009h0l.067.04a.781.781,0,0,1,.094.072h0l-.095-.072c.333.088.283.063.283.063s-.028,0-.026-.007a2.745,2.745,0,0,0,.692-.155c-.207-.056-.294-.081-.627-.171a.132.132,0,0,0,0-.021l-.335-.089-.006.02v-.007h0s-.384-.095-.592-.148c.18.158.368.429.576.484Z"/><path class="a" d="M1357.879,2757.97l-1.4-1.437c-.014-.008-.023-.018-.037-.026l.014.041,1.406,1.435.592.507.134.088-.116-.1Z"/><path class="a" d="M1345.771,2802.381l-.094-.083-.068-.041.05.053Z"/><path class="a" d="M1348.309,2761.825l.3.081c.027-.1.055-.192.082-.287Z"/><path class="a" d="M1348.29,2761.836l.019-.011-.028-.008Z"/><path class="a" d="M1348.609,2761.906c0,.007,0,.013-.006.02l.117.074-.092-.089Z"/><path class="a" d="M1346.961,2738.761l-.02-.005a.153.153,0,0,1-.005.02Z"/><path class="a" d="M1358.9,2715.264l.022.056.007,0v0Z"/><path class="a" d="M1348.811,2761.242l.165-.628.5-.588-.007-.013-.51.581-.172.656-.092.337-.009.031.023-.012C1348.746,2761.485,1348.779,2761.363,1348.811,2761.242Z"/><path class="a" d="M1350.811,2710.984a.521.521,0,0,0,.059-.222c.006-.021.011-.042.017-.062l-.348-.086h0l-.1.344.353.093.018-.066Z"/><path class="a" d="M1344.875,2785.454l-.028-.06-.125-.192.11.2Z"/><path class="a" d="M1350.97,2762.526l-.034-.01h0l-.232.229.243-.206Z"/><path class="a" d="M1344.723,2785.2l-.124-.227-.024.006.007,0Z"/><path class="a" d="M1351.2,2762.613a3.6,3.6,0,0,0,.4.079l.011,0h0l1.454.384c-.456-.475-.712-.871-1.028-1.179-.659-.64-.414.354-.7.381l-.049-.025c0,.01-.005.02-.008.029-.027.1-.257.148-.386.223.1.028.305.083.3.084Z"/><path class="b" d="M1334.921,2802.672a11.232,11.232,0,0,1,.481,5.731A15.456,15.456,0,0,1,1334.921,2802.672Zm-5.476.32-.015.009.1-.369.009.012c.248-.53.275-1.448,1.252-.722,0-.007,0-.019-.009-.021l.067.018a.3.3,0,0,0,.069,0,.712.712,0,0,1,.117.008.084.084,0,0,1,.048.031c.009.011.017.026.028.029l.032.009s-.067.241-.1.36l-.01-.014q-1.119,2.269-2.238,4.54C1328.108,2805.348,1329.088,2804.239,1329.446,2802.992Zm10.657,2.8c-.013-.023-.025-.049-.038-.073l.058.064c.049.252.1.506.147.759l-.018.01Zm-.257-.307c.039.015.092.021.112.049a1.757,1.757,0,0,1,.107.185Zm-.6-1.417a1.436,1.436,0,0,1-.01-.207c.03.1.061.2.092.3C1339.3,2804.133,1339.247,2804.1,1339.242,2804.071Zm-.034-.282-.041-.076.063.064c0,.03,0,.059,0,.087Zm-1.287-1.333.4-.3q.424.78.849,1.559Zm-12.215-2.945-.061.008c.033-.125.066-.249.1-.373l.049.037c.16-.39.355-.729.905-.485a2.235,2.235,0,0,0,2.209-.425c-.1.241-.142.556-.322.684-1.246.887-2.515,1.742-3.793,2.585a6.269,6.269,0,0,1-2.231,1C1323.616,2801.531,1324.651,2800.518,1325.706,2799.51Zm19.952,2.8c-.016-.018-.033-.035-.05-.054l.068.041.094.083Zm-14.624.033.01.017Zm13.146-.944.3-.363,1.133,1.219Zm-4.579-.22a.281.281,0,0,1,0-.074c-.006-.019-.014-.037-.019-.054s0-.055,0-.083c.008.023.017.048.024.071s0,.043,0,.066c.019.057.038.114.058.171A.317.317,0,0,1,1339.6,2801.179Zm-.1-.46c-.006-.036.048-.082.075-.123,0,.124,0,.249,0,.373A1.889,1.889,0,0,1,1339.5,2800.719Zm1.028-1.14c.049-.157.1-.313.147-.471,1.035-.148,1.716.537,2.377,1.3Zm-5.941.145-.67-.17-.029,0c.031-.114.041-.236.073-.35,0,0-.006-.009-.015-.014l.032.008a1.931,1.931,0,0,0,.127-.294c.1.027.2.05.3.076l.028-.016.005.023c.229-.472.191-1.18.635-1.474a.832.832,0,0,1,.394-.131c.924-.093,1.1.84,1.49,1.433a3.672,3.672,0,0,1,.208.671,8.251,8.251,0,0,1-.681-.558c-.577-.611-1.024-.7-1.351.234a.562.562,0,0,1-.039.08l-.02.029c-.012.015-.021.031-.034.047l-.023.025c-.014.015-.028.032-.042.046l-.009.008c-.11.106-.248.2-.359.309l-.02.017a.1.1,0,0,1,0,.018Zm-.649-.542s0,.005.008.009l-.009,0,0,.015Zm-2.332,0c-.1-.021-.127-.367-.192-.587a5.33,5.33,0,0,1,.922-1.031,2.9,2.9,0,0,1,1.067-.208,6.568,6.568,0,0,1-.41.954,2.567,2.567,0,0,1-.671.747.952.952,0,0,1-.524.144A.932.932,0,0,1,1331.609,2799.178Zm2.482-.281c0-.024,0-.048,0-.071l-.051-.163a.361.361,0,0,1,.049.1.3.3,0,0,1,0,.064c.006.019.012.039.018.058h0a.061.061,0,0,0,0,.017Zm-5.17-.662.022-.013c0,.012,0,.021-.006.031s-.02.012-.03.019C1328.912,2798.26,1328.916,2798.247,1328.921,2798.235Zm1.991-2.029c.194,0,.383.18.574.277-.1.177-.154.428-.306.518-.732.432-1.489.819-2.237,1.221C1329.147,2796.836,1329.774,2796.176,1330.912,2796.207Zm6.3,1.688q-.05-.674-.1-1.35a6.43,6.43,0,0,1,1.42.2,3.518,3.518,0,0,1,.9.708c-.3-.088-.614-.163-.907-.276-.759-.292-1.127.058-1.318.721,0,.013,0,.025,0,.038l-.018.01C1337.2,2797.926,1337.208,2797.911,1337.213,2797.894Zm2.226-.445.047.013-.02.01A.286.286,0,0,1,1339.438,2797.449Zm5.867-1.49c.049-.145.1-.289.148-.433l3.2,1.148a2.608,2.608,0,0,1-1.166.3A3.564,3.564,0,0,1,1345.306,2795.96Zm-20.679-.565a4.013,4.013,0,0,0,2.407-.583,3.008,3.008,0,0,1,3.515-.051c-1.414.35-2.959.3-4.15,1.344a.846.846,0,0,1-.489.132c-1.508.075-3.017.138-4.919.22A5.164,5.164,0,0,1,1324.626,2795.395Zm18.345-.014.111-.038,0,.1Zm-3.512-1.857a2.234,2.234,0,0,1,2.418,1.1,6.213,6.213,0,0,0-1.659-.214,7,7,0,0,0-1.553.734C1338.537,2794.282,1338.781,2793.67,1339.459,2793.524Zm-8.91,1.236a.117.117,0,0,1,.025-.005l-.018.009Zm3.028-2.169h0c.037-.077.075-.153.113-.229.041.027.122.066.118.08a1.593,1.593,0,0,1-.106.234Zm16.011-.471c-1.951-.219-3.9-.494-5.84-.778-.14-.02-.258-.191-.386-.3a14.649,14.649,0,0,1,6.644.349c-.139.257-.3.727-.413.727Zm-20.75-.494c-.777-.1-1.545-.265-2.317-.408l-.2.259c.063-.091.124-.182.187-.273a2.5,2.5,0,0,1,2.4-.357c.171.066.282.288.42.438-.158.117-.332.343-.475.343Zm21.168-.233.007-.014.011.019Zm-10.2-.469c.328-.36.64-1,.99-1.023.976-.06,2.067-.077,2.525,1.122-1.107-.347-2.214-.728-3.295.235C1339.95,2791.147,1339.877,2791.035,1339.8,2790.924Zm-16.554.292c-1.124-.05-2.247-.152-3.37-.239-.008-.154-.017-.309-.025-.462,1.156-.68,2.359-.353,3.553-.032.127.034.317.312.294.344-.116.158-.3.39-.445.39Zm13.234-.415a2,2,0,0,1,.407-.125.464.464,0,0,1,.1.253,1.93,1.93,0,0,1-.378.2C1336.559,2790.987,1336.522,2790.894,1336.485,2790.8Zm6.834.221.032.01.011.011-.033,0C1343.326,2791.04,1343.322,2791.032,1343.318,2791.023Zm-11.229-.56c.054-.147.065-.375.164-.425,1.11-.552,2.233-1.076,3.7-1.771-.865,1.4-1.675,2.341-2.944,2.341A3.233,3.233,0,0,1,1332.089,2790.464Zm-5.036-2.7c-.275-.013-.526-.568-.786-.88a11.323,11.323,0,0,1,1.986-.075,4,4,0,0,1,1.919.808c-.883.054-1.768.157-2.647.157Q1327.29,2787.779,1327.054,2787.768Zm-.792-.889a.036.036,0,0,1,.006.009h-.025Zm23.407-.255c-.788-.167-1.549-.471-2.323-.715.028-.123.056-.248.083-.372l3.572-.048c.085.966.1,1.284-.391,1.284A5.309,5.309,0,0,1,1349.669,2786.624Zm-28.527-1.115c1.127-.463,1.854-.343,3.957.7a3.785,3.785,0,0,1-.662.058A13.515,13.515,0,0,1,1321.141,2785.509Zm21.913-1.183a9.645,9.645,0,0,1,1.52.655c-.422.1-.842.22-1.268.294-.671.12-1.348.208-2,.3C1341.536,2784.254,1341.8,2784.015,1343.055,2784.326Zm1.778,1.078c-.037-.068-.073-.135-.11-.2l.124.192.028.06Zm-.25-.419-.007,0,.024-.005.123.227C1344.675,2785.129,1344.629,2785.056,1344.582,2784.984Zm-8.856-.8c-.005-.016.079-.063.121-.1.046.085.09.171.135.256l-.129.094A1.81,1.81,0,0,1,1335.726,2784.182Zm3.216-1.354a1.841,1.841,0,0,1-.46-.341c.131-.076.277-.23.392-.21a2.676,2.676,0,0,1,.661.366,3.279,3.279,0,0,1-.546.193A.135.135,0,0,1,1338.942,2782.828Zm-8.952-.776c-.162-.044-.26-.32-.388-.489.178-.1.373-.305.531-.28a2.5,2.5,0,0,1,2.242,1.285C1331.362,2782.358,1330.666,2782.24,1329.989,2782.052Zm13.169-1.545a2.7,2.7,0,0,1,1.516.047c1.6.893,3.326.595,5.013.726a10.857,10.857,0,0,1,1.836.466l-.123.456c-.454-.008-.909-.007-1.364-.006-1.075,0-2.149,0-3.212-.1a22.032,22.032,0,0,1-2.723-.783,1.458,1.458,0,0,0-1.962.924C1341.872,2781.227,1342.19,2780.633,1343.158,2780.507Zm-8.968,1.369,3.292-1.846.167.192q-.6.947-1.21,1.9l-2.122.012C1334.275,2782.045,1334.232,2781.96,1334.191,2781.876Zm2.248.242h.006l-.011.005Zm-13.914-2.13c1.453-.321,2.539.348,3.965.615a4.368,4.368,0,0,1-1.327.233A5.743,5.743,0,0,1,1322.525,2779.988Zm27.175-1.092a89.737,89.737,0,0,1-17.139-3.584c-2.585-.856-5.121-1.852-7.675-2.8a.478.478,0,0,1-.282-.322.548.548,0,0,1,.2-.442,1.376,1.376,0,0,1,.814-.178c1.939.506,3.866,1.054,5.8,1.588,1.507,2.014,3.951,1.833,6.02,2.473s4.227,1.042,6.356,1.5c.355.076,1.083-.059,1.1-.164.071-.589.318-.454.548-.319a.537.537,0,0,0,.3.114,5.054,5.054,0,0,1,1.365.048c.843.082,1.681.234,2.526.269,1.182.051,1.765.719,2.124,2C1350.941,2779.011,1350.318,2778.973,1349.7,2778.9Zm-20.849-1.152c1.781-.59,3.161-.206,4.019.868Zm-5.239-1.264c.257-1.4.288-1.453,1.59-1.161.8.182,1.575.509,2.361.77-.034.155-.068.31-.1.466C1326.174,2776.351,1324.874,2774.905,1323.612,2776.48Zm27.99-1.72.016-.052c0,.023,0,.048-.006.071Zm.191-2.078,0,.016c.057-.222.1-.448.156-.671h-.053c0-.019.01-.039.015-.059,0,0,.033.02.034.026.436-1.011.905-2.013,1.342-3.023l.149.031q-.91,2.853-1.823,5.7C1351.675,2774.032,1351.732,2773.356,1351.793,2772.682Zm-6.376,1.164.428-.242.059-.02-.055.027-.423.254-.242.376Zm.214-1.421c-.047,0-.113-.23-.17-.353a7.365,7.365,0,0,1,.883-.258c.061-.01.163.2.328.42a10.207,10.207,0,0,1-1.04.191Zm-16.712-2.236c.057-.214.114-.428.171-.644l.019-.011c-.06.224-.121.448-.181.67Zm15-1.135c.01-.012.015-.005.021,0s.025.031.1-.2l1.1.29c-.061.227-.059.222-.057.218s0,0,0,.017C1344.7,2769.26,1344.307,2769.177,1343.924,2769.053Zm-6.723-1.3s0,0,.087-.332l1.748.463c-.088.331-.088.331-.087.331Zm9.04-1.783c.122-.491.258-.979.391-1.468.011-.035.148-.038.174-.139l-.492,1.847C1346.347,2766.09,1346.232,2766.017,1346.242,2765.976Zm-17.982-1.929,0,.015c.057-.221.1-.448.156-.67h-.054c.006-.02.011-.04.016-.06,0,.005.033.021.034.026.436-1.011.905-2.012,1.342-3.022.05.01.1.02.149.031q-.91,2.851-1.823,5.7C1328.142,2765.4,1328.2,2764.72,1328.26,2764.047Zm24.995,1.227c.005-.062.131-.113.205-.168l.133.264h0l-.217.167C1353.331,2765.448,1353.245,2765.356,1353.254,2765.273Zm-17.446-.609.14.077q-.12.374-.238.748C1335.742,2765.214,1335.776,2764.939,1335.809,2764.664Zm18.5.165a2.2,2.2,0,0,1,.031-.241c0-.026,0-.053,0-.079s-.009-.057-.013-.086h0c.01.025.021.051.031.076s-.01.06-.015.09l.024.367C1354.347,2764.913,1354.308,2764.869,1354.311,2764.829Zm.014-.407h0c-.044-.1-.088-.2-.131-.3.032.029.083.052.092.087a1.762,1.762,0,0,1,.04.216h0Zm-.131-.3h0Zm-2.578-1.423s0,0,0,0,0,0,0,0l-.011,0a3.524,3.524,0,0,1-.4-.078.152.152,0,0,1,.006-.021l-.238-.066-.022.014c-.081.068-.162.138-.243.205l.231-.228-.033-.01c.13-.075.359-.122.386-.222,0-.01.005-.02.008-.03l.049.025c.284-.026.039-1.021.7-.381.316.309.572.7,1.028,1.179Zm-3.013-.769.005-.021c-.1-.026-.2-.052-.3-.08l.382-.207-.082.287.02.005.091.089C1348.682,2761.975,1348.642,2761.951,1348.6,2761.926Zm-.323-.109.029.008-.019.011Zm.419-.23.092-.337q.086-.328.172-.656l.509-.581.007.012q-.253.293-.5.588-.082.313-.166.628c-.031.121-.065.243-.1.365l-.022.012C1348.693,2761.609,1348.7,2761.6,1348.7,2761.587Zm9.753-3.1c-.2-.169-.4-.337-.591-.507l-1.407-1.435-.014-.04c.014.007.023.017.037.025q.7.72,1.4,1.437l.592.507.116.1Zm-31.115-.542c.051-.081.1-.162.156-.243.007.052.037.114.018.152a1.769,1.769,0,0,1-.161.248C1327.346,2758.052,1327.343,2758,1327.338,2757.948Zm28.014-3.474.33-.144.759,2.178C1355.653,2756.032,1355.584,2755.214,1355.352,2754.473Zm6.3.269,1.215.755-.321.356Zm-3.686-1.06.245-.3,1.839,1.452c-.1.077-.2.155-.305.233Zm3.629,1.026-.907-.595-.578-.508-.595-.508c-.005-.008-.01-.017-.015-.027l.035.014.593.508.579.509.906.594c.013.015.025.032.039.047Zm-8.178-1.445-.251-.429.019-.011.251.43.106.084Zm5.389-1.4a.26.26,0,0,0-.015-.027c-.038-.1-.075-.205-.113-.307.043.1.086.2.128.3v.034q.347.6.694,1.2C1358.908,2752.88,1358.794,2752.411,1358.809,2751.868Zm-13.215.3c0-.08.164-.165.254-.247a2.059,2.059,0,0,1,.159.424c.008.051-.121.125-.222.223C1345.712,2752.427,1345.6,2752.3,1345.594,2752.168Zm17.987-.478,1.435.55-.154.28Zm-.091-.035c-.422-.225-.844-.457-1.266-.683a1.125,1.125,0,0,0-.105-.052l.125.033a6.487,6.487,0,0,1,1.266.684c.024.016.047.038.071.053Zm-8.446-.453c-.2-.169-.4-.338-.595-.507a.078.078,0,0,0-.013-.007l.033-.006.595.508.128.1Zm-.608-.514-1.868.357C1353.08,2750.039,1353.151,2750.021,1354.437,2750.689Zm-5.3.239c-.113-.056-.17-.219-.252-.335a1.076,1.076,0,0,1,.441-.045c.119.042.2.2.374.4-.085,0-.161,0-.228.005s-.109.005-.155.005A.409.409,0,0,1,1349.137,2750.927Zm10.529-.655c.01,0,.086-.243.13-.365a16.682,16.682,0,0,0,2.323,1.013Zm7.246.1.113.073-.019.01Zm-11.547-2.676a4.113,4.113,0,0,0,.031,1.594c.207.461.772.762,1.181,1.134C1354.208,2749.3,1354.055,2748.867,1355.365,2747.7Zm-19.855,1.887c1.491-.168,3-.638,4.706.423-.6.03-.943.056-1.286.061-.258,0-.518,0-.777,0a13.544,13.544,0,0,0-1.579.042c-.109.011-.211.019-.306.019A.689.689,0,0,1,1335.51,2749.586Zm11.714-.5c-.076.942-1.428.83-2.219.978Zm15.345-1.238c-.638-.448-1.306-.854-1.943-1.3a19.188,19.188,0,0,1-1.9-1.417.851.851,0,0,1,.111-1.446q.213-.232.428-.463l-.426.468c.049,1.551,1.237,2.154,2.417,2.509a4.7,4.7,0,0,1,2.137,1.274c.512.526,1.143.935,1.69,1.43a1.318,1.318,0,0,1,.446,1.07C1364.543,2749.258,1363.563,2748.542,1362.568,2747.843Zm-33.991,1.953.235-.882s.059.019.1.031c-.1.288-.214.572-.313.859C1328.58,2749.8,1328.576,2749.8,1328.577,2749.8Zm6.93-.216a.023.023,0,0,1,0,.006l-.02,0Zm-5.733-.541.043-.459,3.994.312-.065.526a7.939,7.939,0,0,1-1.007.063A11.413,11.413,0,0,1,1329.774,2749.039Zm19.468-3.432c-.411-.564-.112-.918.453-1.126a1.444,1.444,0,0,0,.6,1.587.931.931,0,0,1,.215,1.006C1350.083,2746.589,1349.621,2746.128,1349.242,2745.608Zm3.643,1.359c.083-.031.133-.067.177-.061s.062.065.093.1Zm16.547-.811a5.856,5.856,0,0,1-4.456-2.6c1.362.677,2.727,1.347,4.077,2.046.173.089.261.339.42.556Zm-32.989-.509a3.37,3.37,0,0,1,3.738.35Zm17.277-.322a1.593,1.593,0,0,1-.22-.2,1.358,1.358,0,0,1,.265.112,1.913,1.913,0,0,1,.251.233A2.051,2.051,0,0,1,1353.721,2745.325Zm-.265-.216.019-.01.026.025Zm-18.114-.546.068.018-.017.009Zm-5.219-1.384a14.244,14.244,0,0,1,5.221,1.379Zm19.576,1.278.011.019-.014.006A.222.222,0,0,0,1349.7,2744.457Zm1.2-.388,1.124-1.1.287.258-1,1.223Zm14.033-.536-.568-.514.008,0,.583.506c0,.011.013.022.018.033Zm-4.665-2.162c0-.188.2-.373.3-.559a5.35,5.35,0,0,1,.469.325c.414.357.84.706,1.216,1.1a2.3,2.3,0,0,1,.31.674l-.711.117C1361.128,2742.569,1360.255,2742.368,1360.27,2741.37Zm-11.945,1.263c-.286-.167-.564-.349-.842-.529-.464-.682-.934-1.361-1.391-2.049s-.294-1.151.516-1.368c.018.09.03.194.041.3.027.254.053.509.176.569,1.269.608.929,1.575.663,2.544a.42.42,0,0,1,.161-.013c.285.1.565.211.848.319-.058.078-.159.229-.17.229Zm19.818-1.192a1.516,1.516,0,0,1,.609-.012c.15.063.23.29.341.444l-.691.091Zm-2.955-.087.07.065-.087.031Zm-23.775-.021.074.079-.113,0Zm8.348-.249a1.978,1.978,0,0,1,.44-.138c.073-.006.156.1.235.161l-.394.19Zm4.782-.526a22.464,22.464,0,0,1-1.6-2.328,3.192,3.192,0,0,1-.184-1.121l.747-.146-.014-.022a7.14,7.14,0,0,1,2.021,4.292A4.316,4.316,0,0,1,1354.542,2740.557Zm-15.089.651a1.9,1.9,0,0,1-.18-.173l.316.186h-.075A.1.1,0,0,1,1339.453,2741.208Zm-.253-.216c-.016-.014-.032-.029-.048-.043l.067.03c.018.019.037.038.054.057Zm-1.113-.519.216-.3q.424.387.85.771Zm-4.631-.04-.113-.177h.054a.173.173,0,0,1,.107.019.7.7,0,0,1,.118.174Zm23.707-1.03c.074-.068.186-.205.214-.19a1.714,1.714,0,0,1,.309.265l-.281.12Zm-10.22-.648-.275-.075a.408.408,0,0,0,.324-.228s.012,0,.022,0l.005,0c-.025.1-.051.2-.076.3a.113.113,0,0,0,.019.005l-.024.014C1346.938,2738.769,1346.94,2738.762,1346.942,2738.755Zm-.287-.076-.019-.006.031.008Zm-.084,0c0-.007-.043-.027-.041-.033l.078.021.028.009h0c-.007,0-.033,0-.04.007A.23.23,0,0,0,1346.571,2738.676Zm-.042-.033h0Zm.624-.194a19.438,19.438,0,0,1,1.644-1.3c-.013.059-.025.114-.04.171-.175.685-.489,1.182-1.169,1.182A1.873,1.873,0,0,1,1347.152,2738.449Zm-.04.025a.111.111,0,0,1-.04-.008c-.02-.005-.04-.011-.041-.006s-.006,0-.014,0,0,0,0-.006l.025-.013.016-.013.092.024-.017.015c-.012,0-.023.012-.023.012Zm-6.622-1.783,2.2.582a4.1,4.1,0,0,0-.161.414A11.9,11.9,0,0,0,1340.491,2736.691Zm-4.306.794a1.853,1.853,0,0,1-.228-.186,1.256,1.256,0,0,1,.266.1,1.9,1.9,0,0,1,.262.227A2.3,2.3,0,0,1,1336.185,2737.485Zm-.277-.2c-.041-.017-.08-.034-.121-.05l.139.037.031.028Zm-3.235-.885c.008,0,.086-.262.13-.393a25.372,25.372,0,0,0,2.987,1.217Zm16.131.722.01.018-.016.012C1348.8,2737.142,1348.8,2737.133,1348.8,2737.122Zm3.952-.02v.005l-.018,0Zm21.085-.15a37.379,37.379,0,0,1-4.349-.823c-.467-.132-.769-.845-1.146-1.292l-.022.007c.031-.118.062-.236.094-.354l.013.021c1.9.528,3.809,1.041,5.7,1.6.192.057.3.4.446.606a2.572,2.572,0,0,1-.679.24A.384.384,0,0,1,1373.841,2736.952Zm-33.476-.268a.223.223,0,0,1-.012-.033l.035.018c.031.016.064.031.1.047Zm-.4-.252a2.087,2.087,0,0,1-.285-.365,1.508,1.508,0,0,1,.489.184.986.986,0,0,1,.184.4A1.877,1.877,0,0,1,1339.965,2736.432Zm-6.929-1.793c.054-.1.107-.209.16-.315q2.3.751,4.594,1.5c-.036.11-.073.219-.109.329A12.052,12.052,0,0,1,1333.036,2734.639Zm7.956-.292.117.014-.106.011-.445.074Zm25.664.051a.019.019,0,0,0,.006-.006l.007.015Zm-25.349-.02c-.067,0-.132-.009-.2-.017.106-.011.213-.022.32-.032a.364.364,0,0,1-.12.049Zm16.777-.787c-.407-.837.027-1.273.31-1.749-.442-.777-1.185-1.531-.186-2.421a11.791,11.791,0,0,0,3.375-.588c1.4,1.39.519,3.053.9,4.8a12.6,12.6,0,0,0-1.936.049c-.43.034-.842.069-1.241.069A4.25,4.25,0,0,1,1358.085,2733.591Zm1.222-1.484a.931.931,0,0,1,.866-.257c.363.023.7.046.887-.5l0,.032c.063-.435.126-.869.222-1.543C1360.519,2730.54,1358.981,2730.135,1359.307,2732.107Zm-.913-.265a.165.165,0,0,1,.01.018l0-.03Zm-11.578.913a2.5,2.5,0,0,1,.369-.283,1.169,1.169,0,0,1-.173.418,1.811,1.811,0,0,1-.467.268A2.723,2.723,0,0,1,1346.817,2732.755Zm.382-.326.026-.017-.01.039-.03.021Zm-1.744-.089c-1.121-.433-2.49-.254-3.346-1.4-.2-.273-.828-.221-1.25-.347-1.579-.469-3.165-.918-4.721-1.454-.3-.1-.477-.56-.71-.853l.213-.275c1.111.425,2.235.815,3.327,1.28a5.723,5.723,0,0,0,3.291.691,1.689,1.689,0,0,1,.958.276c.993.528,1.967,1.092,3.07,1.712-.269.127-.569.385-.767.385A.173.173,0,0,1,1345.455,2732.34Zm4.828-1.989a2.622,2.622,0,0,0,2.257-.507,1.766,1.766,0,0,0,2.153.094.033.033,0,0,0,0-.008v-.027a.313.313,0,0,0,.022.023.145.145,0,0,1-.019.012c.245.472.266.958-.352,1.051a27.651,27.651,0,0,1-3.219.259h-.029C1350.576,2731.249,1350.344,2730.842,1350.283,2730.351Zm-15.478.8a4.564,4.564,0,0,1-.478-.356c.074-.047.177-.152.216-.132a5.65,5.65,0,0,1,.549.352,1.368,1.368,0,0,1-.271.14A.031.031,0,0,1,1334.8,2731.15Zm18.863-2.974c.254-.444.218-1.1.995-1.606.011,1.265.019,2.3.027,3.333A3.03,3.03,0,0,1,1353.667,2728.176Zm-6.867,1.665c.017,0,.03.011.048.015a.092.092,0,0,0,.007.014h-.027Zm-1.767-2.583-.028.012a.251.251,0,0,0,.027-.015q-.07-.249-.142-.5l.556.258.022-.013-.016.014c.635.375,1.3.711,1.893,1.14.229.165.305.54.45.82-.3.037-.6.084-.9.107-.141.011-.285-.022-.862-.071l.764.826A2.245,2.245,0,0,1,1345.034,2727.258Zm5.052.261c.154.127.358.284.53.419l-.009.009c.082.232.193.48.3.784C1350.176,2728.533,1350.165,2728.021,1350.086,2727.519Zm.53.419a.894.894,0,0,1,.078-.06l-.035.081s.074.072.075.07v0C1350.7,2728,1350.657,2727.97,1350.616,2727.938Zm-8.971-.849a4.916,4.916,0,0,0-.456-.349c-.031-.022-.064-.041-.1-.06-.447-.294-.931-.546-1.388-.829l-.014.005-1.72-1.95a9.01,9.01,0,0,1,4.7,1.857,1.2,1.2,0,0,1,.17,1.125.694.694,0,0,1-.6.486A.956.956,0,0,1,1341.644,2727.089Zm9.689-.226c.373.059.7-.011,1.006.4a1.315,1.315,0,0,1-.435.094C1351.643,2727.36,1351.47,2727.211,1351.334,2726.863Zm23.973.458c-1.258-.022-2.519-.063-3.766-.209-.35-.041-.655-.458-.981-.7.353-.2.713-.585,1.057-.571,1.084.045,2.164.24,3.081.356a2.7,2.7,0,0,1,.657.184,5.494,5.494,0,0,1,.592.513c-.212.149-.426.428-.634.428Zm-7.456-.078.016.007-.018.011A.116.116,0,0,0,1367.852,2727.243Zm-10.56-.969.031,0,0,0A.233.233,0,0,1,1357.292,2726.274Zm1.364-.454c.117-.584.387-.784.932-.7.029.627-.283.7-.715.7C1358.8,2725.823,1358.731,2725.821,1358.656,2725.819Zm1.953-2.393a1.856,1.856,0,0,0-.038-2.288c.55-.035,1.1.089,1.173.686.139,1.159.146,2.334.209,3.5l-.283.059C1361.335,2724.766,1361,2724.146,1360.609,2723.426Zm-4.839.984.012,0-.018.01Zm-16.125-2.118c.922-.531.265-1.922,1.339-2.425,1.768.574,3.3,1.772,5.173,2.16a2.29,2.29,0,0,1-.831,2C1343.3,2723.992,1341.716,2722.319,1339.645,2722.292Zm16.459,1.654h0a.025.025,0,0,0,.013,0h.014l-.031,0Zm1.5-2.514a5.877,5.877,0,0,0,.086,2.214A1.457,1.457,0,0,1,1357.606,2721.432Zm.048-.014c.47-.031,1-.2,1.225.531a.878.878,0,0,1-.3.055C1358.167,2722.005,1357.938,2721.644,1357.654,2721.418Zm-4.692.409.025-.005.024.084Zm16.293-.4a3.408,3.408,0,0,1-.485-2.125,4.815,4.815,0,0,0,1.634.122,8.391,8.391,0,0,1,.9,0,7.029,7.029,0,0,0,1.613-.144,4.72,4.72,0,0,1,2.4.014c-1.288,1.6-3.345,1-4.955,1.772l2.223.178a14.371,14.371,0,0,1-2.284.422A2.315,2.315,0,0,1,1369.255,2721.424Zm-20.884-.01c0-.006,0-.013,0-.019l.009.019Zm12.118-.25h0l-.035.031Zm.06-.057a.285.285,0,0,1,0,.032l0-.034c.008.011.013.023.021.033h-.017l-.064.024Zm14.763-.393.013.018-.008,0C1375.315,2720.726,1375.313,2720.72,1375.313,2720.714Zm-28.523-2.173a20.65,20.65,0,0,1-1.638-1.48c-.972-.98-.959-.993-.022-2.178l-.013-.018c.031-.031.062-.062.094-.094-.026.036-.052.071-.077.107.872.762,1.738,1.533,2.622,2.284.579.491,1.521.8,1.059,1.831a.527.527,0,0,1-.508.354A2.9,2.9,0,0,1,1346.79,2718.541Zm.089-4.9a4.2,4.2,0,0,0,.849-1.781,13.737,13.737,0,0,1,4.652,3.346c-.241.793-.539,1.313-1.392,1.517A19.382,19.382,0,0,1,1346.879,2713.642Zm4.457,2.064a6.327,6.327,0,0,0-3.545-2.484A6.717,6.717,0,0,0,1351.336,2715.706Zm3.133.22c0-.006,0-.011,0-.017l.011.02Zm2.592-.378q.015-.713.031-1.425l0-.005.028,0q-.016.713-.032,1.425l-.008.023Zm9.422-1.291c-.027-.036.213-.273.329-.417l-.02.012a13.892,13.892,0,0,1,1.794-1.57c.3-.189.845.017,1.28.042-.022.306-.043.614-.065.919l.018-.007c.01.009.016.031.026.041a.049.049,0,0,0-.027.007c-.01.005-.021.011-.027.008-.732.69-1.5,1.429-2.3,2.21C1367.209,2715.178,1366.831,2714.719,1366.483,2714.258Zm-7.588,1.006.029.051,0,0-.008,0Zm5.725-1.279.005-.031.016.022q.03.542.06,1.083l-.018.01Q1364.651,2714.527,1364.62,2713.985Zm-1.357,1.071a.081.081,0,0,0,0-.015l.009.015Zm-9.662-3.316a3.676,3.676,0,0,1-.447-1.266c.005-.305.406-.6.631-.9a3.166,3.166,0,0,1,.693.569c.888,1.314,1.744,2.65,2.61,3.981a3.674,3.674,0,0,1-.7.071C1354.9,2714.189,1354.148,2713.113,1353.6,2711.74Zm4.794.235c.216-1.08.114-2.277,1.277-3.217.282,1.208.538,2.308.793,3.407l.009.014c.053-.6.138-1.2.153-1.8.035-1.405.041-1.427,1.414-1.3.22.021.438.084.658.127l-.018.01a7.9,7.9,0,0,1,2.068.422c.265.13.344.874.309,1.325-.077,1-.274,1.986-.427,2.981a9.26,9.26,0,0,0-1-1.3,1.26,1.26,0,0,1-.3-1.543c.137-.361.256-.693.431-1.125l-.312-.171c-.183.428-.427.908-.58,1.356-.044.129-.116.293-.168.408a2.631,2.631,0,0,1-.151.283.366.366,0,0,1-.02.038,1.543,1.543,0,0,1-1.818.7.185.185,0,0,1,.014.023l-.027-.026q.519.61,1.039,1.219l-.271.329C1360.114,2713.951,1359.455,2712.636,1358.394,2711.975Zm12.129,1.847h0Zm0,0Zm-.095-.071a1.031,1.031,0,0,1,.095.071Zm0,0-.067-.041.022.006c-.2-.062-.387-.326-.564-.481.209.053.592.15.592.148v.007l.006-.02.335.089a.126.126,0,0,1,0,.021l.627.171a2.736,2.736,0,0,1-.692.155c0,.006.026.007.026.007s.006,0,0,0A2.32,2.32,0,0,1,1370.429,2713.75Zm1.022-.082.031-.006.01.017Zm-13.48-.17c.013-.015.047-.013.08-.011l.042,0c-.047.049-.094.1-.157.171C1357.95,2713.585,1357.945,2713.529,1357.971,2713.5Zm7.79-2.734c.372,1.281.372,1.281-.644,2.411C1365.382,2712.182,1365.551,2711.551,1365.761,2710.764Zm-8.374,1.822.945-.565-.716.846Zm.993-.621s.009.007.014.01l0,.01-.06.036Zm-.82-.915c-.033-.024-.031-.1-.044-.148l.129-.1c.023.081.047.162.071.243-.035,0-.076.011-.111.011A.078.078,0,0,1,1357.56,2711.049Zm-7.12-.092c.032-.115.066-.229.1-.344h0l.348.086c-.005.022-.011.042-.017.063a.513.513,0,0,1-.058.221h0c-.006.021-.013.044-.018.066Zm11.722-2.426c-.086-.007-.167-.115-.249-.178l.239-.173.251.191c-.079.057-.161.16-.236.16Z"/></g></svg>