<svg xmlns="http://www.w3.org/2000/svg" width="55.398" height="99.926" viewBox="0 0 55.398 99.926"><defs><style>.a{fill-rule:evenodd;}.b{fill:#003d2a;}</style></defs><g transform="translate(-692.172 -2554.755)"><path class="a" d="M713.418,2577.138s0-.009,0-.014l.021.022-.019-.008c.075.547.007,1.157.849,1.562,1.261-.5,2.072-1.734,3.474-2.688-1.388-1.129-1.736-2.977-3.7-3.2a11.677,11.677,0,0,1-2.278,2.546C711.533,2576.671,712.586,2576.8,713.418,2577.138Zm1.014-3.356.789,1.346-.021-.024c.358.988-.862.814-.9,1.677C712.812,2575.438,714.27,2574.806,714.432,2573.782Z"/><path class="a" d="M692.758,2581.233c.391-.985-.992-1.669-.464-2.727,1.745-.642,3.7-.652,5.4-1.5a2.29,2.29,0,0,1,.6,2.081C696.689,2580.306,694.4,2579.976,692.758,2581.233Z"/><path class="a" d="M718.846,2556.844c-.012,2.047-2,2.847-2.778,4.449l1.854-1.233c-.767.848-1.3,1.952-2.5,2.206a3.446,3.446,0,0,1-1.708-1.366,10.6,10.6,0,0,0,2.063-1.475C716.893,2558.661,717.495,2557.309,718.846,2556.844Z"/><path class="a" d="M693.027,2569.986a19.473,19.473,0,0,0,5.144-.122,1.809,1.809,0,0,0,.144-2.048,13.794,13.794,0,0,0-5.736.25A4.19,4.19,0,0,1,693.027,2569.986Zm.452-.893a6.357,6.357,0,0,1,4.33-.242A6.749,6.749,0,0,1,693.479,2569.093Z"/><path class="a" d="M708.441,2567.4c.409-.367.919-.61,1.347-.187.833.823,1.573,1.74,2.351,2.618l-.185.221-2.055-.882A1.867,1.867,0,0,0,708.441,2567.4Z"/><path class="a" d="M708.4,2567.391l.038.013-.013.011Z"/><path class="a" d="M706.3,2569.466a5.928,5.928,0,0,0,1.451,1.682C706.773,2570.993,706.227,2570.484,706.3,2569.466Z"/><path class="a" d="M709.863,2572.256c-.273-.53-.187-.853.294-1.123C710.638,2571.683,710.3,2571.932,709.863,2572.256Z"/><path class="a" d="M707.62,2569.085c-.346.55-.849.342-1.292.341C706.677,2569.112,706.982,2568.651,707.62,2569.085Z"/><path class="a" d="M708.392,2567.475h0C708.381,2567.546,708.385,2567.524,708.392,2567.475Z"/><path class="a" d="M708.392,2567.474c0-.023.007-.051.012-.082l.023.023-.035.059Z"/><path class="a" d="M706.69,2572.367l0,0,0,0,0,0,.008-.009.011-.009Z"/><path class="a" d="M709.1,2573.434a.038.038,0,0,0,0,.006c-.008,0-.014.01-.022.015Z"/><path class="a" d="M706.128,2580.979a2.6,2.6,0,0,0,1.453-1.791,1.758,1.758,0,0,0,1.747-1.256c.486.219.807.587.38,1.041a27.357,27.357,0,0,1-2.362,2.192C706.936,2581.508,706.49,2581.333,706.128,2580.979Z"/><path class="a" d="M709.3,2577.907l.033,0a.215.215,0,0,1-.008.021l-.008,0Z"/><path class="a" d="M707.424,2577.184c-.078-.5-.516-1-.223-1.873l2.1,2.6A3.062,3.062,0,0,1,707.424,2577.184Z"/><path class="a" d="M704.775,2577.6c.33-.184.541-.441,1.04-.306C705.522,2577.765,705.251,2577.875,704.775,2577.6Z"/><path class="a" d="M704.206,2578.881c.247.006.586,0,.828,0h0s-.1-.009-.1-.009l-.023-.085a.647.647,0,0,0-.026.107c.209.132.451.258.724.43C704.91,2579.62,704.581,2579.226,704.206,2578.881Z"/><path class="a" d="M702.994,2572.675l-.087-.031.016-.02Z"/><path class="a" d="M708.466,2589.755l.293-.124-.129-.286.011-.027.005-.02c1.016-.417,1-1.117.643-1.909-.024-.053-.049-.105-.075-.158a19.126,19.126,0,0,0-.485,2.053c-.011,0-.011.024-.011.024v0h0c0,.008-.076.031-.072.039s-.039.016-.037.02a.4.4,0,0,1-.123.385l-.046.017-.075.033h0c0,.006.048,0,.053,0l.021-.012C708.441,2589.778,708.462,2589.762,708.466,2589.755Z"/><path class="a" d="M730.572,2605.187a1.781,1.781,0,0,0-.166-.145c-.029-.022-.084-.009-.127-.012h0l.293.157h0Z"/><path class="a" d="M730.572,2605.187h0l.064.061.053.059c-.014-.027-.029-.054-.044-.08Z"/><path class="a" d="M699.035,2575.144l.016.012,0,0Z"/><path class="a" d="M693.358,2569v0l-.012,0Z"/><path class="a" d="M717.976,2567.688l-.017,0,.009.016Z"/><path class="a" d="M721.506,2574.037l-.016-.007a.041.041,0,0,1,0,.009Z"/><path class="a" d="M706.731,2572.929l-.011,0s0,.01,0,.014Z"/><path class="a" d="M706.744,2560.962l.008.013.008-.007Z"/><path class="a" d="M700.393,2567.075c0,.005.006.009.01.014l.011-.005Z"/><path class="a" d="M719.729,2557.966l.016.013.005-.006Z"/><path class="a" d="M737.71,2618.27c-1.084-.786-1.958-.95-2.916-.259-.683.494-1.435.892-2.147,1.348a5.022,5.022,0,0,0-1.1.806c-.171.2-1-.064-.538.686.055.09-.432.646-.757.8-1.953.957-3.89,1.973-5.917,2.751s-3.825,2.428-6.264,1.78c-1.847.773-3.7,1.534-5.535,2.335a1.357,1.357,0,0,0-.526.642.545.545,0,0,0,.119.47.484.484,0,0,0,.422.079c2.592-.837,5.2-1.623,7.762-2.549a89.489,89.489,0,0,0,15.671-7.776C736.518,2619.068,737.029,2618.713,737.71,2618.27Z"/><path class="a" d="M703.587,2585.52c.2-.06.272-.509.418-.806-1.251.2-2.367.354-3.475.555a1.694,1.694,0,0,0-.924.375,5.7,5.7,0,0,1-3.011,1.491c-1.146.311-2.271.7-3.407,1.052q0,.174.005.347c.366.086.789.334,1.089.23,1.554-.542,3.078-1.169,4.608-1.777.41-.162.868-.589,1.2-.5C701.477,2586.858,702.438,2585.873,703.587,2585.52Z"/><path class="a" d="M697.886,2572.984c-.281-1.093-1.213-.753-1.974-.781-1.161-.043-2.321-.113-3.481-.171,0-.044,0-.087-.006-.132-.005.044-.01.087-.015.131l.021.007c.005,1.508,0,1.526,1.377,1.693a20.654,20.654,0,0,0,2.208.149C697.443,2573.9,698.047,2573.609,697.886,2572.984Z"/><path class="a" d="M733.081,2623.792a2.691,2.691,0,0,0-1.217.9c-.681.7-.558,1.359.279,1.984a1.447,1.447,0,0,1,.961-1.937,21.99,21.99,0,0,0,2.622-1.068c1.281-.817,2.443-1.818,3.655-2.741l-.187-.432a10.722,10.722,0,0,0-1.73.768C736.06,2622.2,734.893,2623.5,733.081,2623.792Z"/><path class="a" d="M698.137,2582.859c-.081-.321-.555-.787-.836-.776a9.014,9.014,0,0,0-4.847,1.45l2.567.467.007-.013c.534-.061,1.071-.162,1.605-.207.037,0,.075-.009.113-.012a4.982,4.982,0,0,1,.576-.008C698.09,2583.8,698.265,2583.369,698.137,2582.859Z"/><path class="a" d="M695.9,2562.529c.012.375-.116.856.07,1.1a3.709,3.709,0,0,0,1.142.716c1.475.846,2.917,1.221,4.218-.289-1.509-.507-3.014-1.026-4.531-1.508A3.174,3.174,0,0,0,695.9,2562.529Z"/><path class="a" d="M704.771,2561.363q0-.212.007-.426l-1.575-.313.038,0-.026-.01a1.528,1.528,0,0,0,.985-1.674c0-.013-.006-.029-.008-.042a2.962,2.962,0,0,0-.059-.315c-.031-.123-.078-.3-.124-.425-.16-.446-.268-.973-.392-1.421l.351-.059c.132.447.247.781.365,1.148a1.27,1.27,0,0,0,1.2,1.027,9.325,9.325,0,0,1,1.6.4c-.5-.874-.963-1.768-1.527-2.6-.254-.375-.781-.909-1.069-.847a7.851,7.851,0,0,0-1.884.946l.008-.019c-.2.1-.409.187-.6.307-1.156.747-1.148.768-.3,1.89.364.481.673,1,1.006,1.508l-.015-.005-2.749-2.18c-.325,1.454.5,2.33,1.008,3.31C702.257,2561.429,703.594,2562.053,704.771,2561.363Z"/><path class="a" d="M728.467,2647.267c.28-1.556,1.524-2.468,2.413-3.616a2.992,2.992,0,0,0-2.723,2.211,3.973,3.973,0,0,1-1.523,1.945,5.116,5.116,0,0,0-2.186,3.077c1.439-1.24,2.582-2.221,3.718-3.211A.845.845,0,0,0,728.467,2647.267Z"/><path class="a" d="M730.9,2643.631l-.016.02h.008Z"/><path class="a" d="M720.033,2564.268c-.278.2-.321.724-.471,1.1.408-.01.907.128,1.208-.056,1.068-.656,2.082-1.4,3.082-2.162.167-.126.159-.481.233-.73a5.434,5.434,0,0,0-.784-.037,2.741,2.741,0,0,0-.63.262C721.879,2563.119,720.912,2563.633,720.033,2564.268Z"/><path class="a" d="M709.192,2555.514a13.836,13.836,0,0,0-.425,2.337l.008-.021c0,.184-.042.518,0,.529.561.147,1.144.273,1.564.356.145-1.111.283-2.162.425-3.156h0c.015,0,.018-.039.033-.045-.013,0-.032-.014-.046-.015l-.009.017-.523-.76C709.866,2555,709.309,2555.181,709.192,2555.514Z"/><path class="a" d="M729.31,2586.375c-.738-.05-1.489.019-2.218-.077a4.713,4.713,0,0,0-2.469.322c-1.146.449-2.455.711-3.461-.475.013-.21.027-.419.042-.629q-.024.314-.047.627c-.17.7.126,1.155.816,1.2a19.246,19.246,0,0,0,2.374-.063c.78-.043,1.557-.136,2.336-.18,1.215-.067,2.431-.111,3.646-.164A1.329,1.329,0,0,0,729.31,2586.375Z"/><path class="a" d="M730.6,2652.521c.475-1.449.937-2.9,1.359-4.368.061-.211-.1-.486-.175-.735-.263.758-.59,1.473-1.466,1.7-.584.149-.525.535-.407.94h-.06l.154.353.043-.044c-.2,1.441-.377,2.875-.574,4.316A6.207,6.207,0,0,0,730.6,2652.521Z"/><path class="a" d="M736,2649.3h0l.018,0-.148-.343-.03.013c-.011,0-.026,0-.04,0a.088.088,0,0,0-.057,0,.7.7,0,0,0-.1.066.274.274,0,0,1-.055.043l-.063.027s.014.007.02.01c-1.22.035-.667.77-.53,1.339l-.015,0c.05.117.1.234.152.351l.006-.016c.5,1.2.422,2.673,1.92,3.45Q736.535,2651.765,736,2649.3Z"/><path class="a" d="M736.015,2649.3,736,2649.3h0Z"/><path class="a" d="M744.025,2628.98s0,.01,0,.015l.017-.008Z"/><path class="a" d="M738.6,2632.825c.167.006.366.066.488,0,1.7-.978,3.4-1.963,5.064-3,.095-.059-.074-.536-.127-.828A14.569,14.569,0,0,0,738.6,2632.825Z"/><path class="a" d="M712.283,2584.744l-.008.018.011-.014Z"/><path class="a" d="M715.841,2586.348a4.334,4.334,0,0,0,1.181-.069,7.213,7.213,0,0,0-4.264-2.116l.024.01-.494.576c.278.263.514.636.844.764A22.524,22.524,0,0,0,715.841,2586.348Z"/><path class="a" d="M702.686,2582.077c.22-.2.425-.424.635-.637-.288-.129-.582-.377-.864-.365-.734.031-1.464.177-2.2.276l0-.022-.009.023h0l-.078.2.078-.2-.6.141.422.3-.011.029.014-.028a2.262,2.262,0,0,0,3,.934l-1.114-.176A8.328,8.328,0,0,0,702.686,2582.077Z"/><path class="a" d="M703.08,2582.73l.041.006.021-.018-.014-.005C703.111,2582.72,703.1,2582.724,703.08,2582.73Z"/><path class="a" d="M738.52,2626.34c.758-.287,1.544-.519,2.267-.875,1.305-.642,1.293-.7.335-1.711l-2.77,2.244Z"/><path class="a" d="M731.039,2581.515c-.26-.073-.486-.214-.676-.177-1.495.286-2.983.6-4.474.914A5.866,5.866,0,0,0,731.039,2581.515Z"/><path class="a" d="M723.058,2644.8a.616.616,0,0,0-.445-.088c-1.136.486-2.283.973-2.765,2.219l.309.347c.934-.626,1.878-1.24,2.791-1.9C723.069,2645.294,723.066,2645,723.058,2644.8Z"/><path class="a" d="M743.2,2651.347a11.313,11.313,0,0,0-3.955-4.195A15.559,15.559,0,0,0,743.2,2651.347Z"/><path class="a" d="M731.059,2635.227c-.713,1.448-1.266,2.553-1.792,3.671-.046.1.087.286.137.434C731.176,2638.627,731.3,2637.217,731.059,2635.227Z"/><path class="a" d="M737.484,2638.941a6.935,6.935,0,0,1,.758-1.535,6.181,6.181,0,0,1,1.434-.856,2.235,2.235,0,0,0-2.583.63C736.653,2637.712,736.843,2638.343,737.484,2638.941Z"/><path class="a" d="M733.579,2629.813c.451-.48.927-.967,1.378-1.476.288-.323.542-.674.81-1.014a9.729,9.729,0,0,0-1.6.425C732.993,2628.277,732.931,2628.631,733.579,2629.813Z"/><path class="a" d="M724.12,2638.839a11.377,11.377,0,0,0-1.51,1.285c.4.084.942.365,1.165.206a28.652,28.652,0,0,0,2.353-2.042A4.01,4.01,0,0,0,724.12,2638.839Z"/><path class="a" d="M722.591,2640.141l.019-.016-.011,0Z"/><path class="a" d="M704.8,2605.686l-3.326,2.222.253.386a10.136,10.136,0,0,0,3.351-2.156Z"/><path class="a" d="M727.368,2627.871l-.25-.047-1.428,3.48.257.121,1.656-1.319Q727.485,2628.987,727.368,2627.871Z"/><path class="a" d="M727.608,2630.1l0,0v.007Z"/><path class="a" d="M699.754,2592.985l-4.536,1.663.072.345a12.039,12.039,0,0,0,4.584-1.684Z"/><path class="a" d="M746.266,2633.971l-3.224,1.075.154.43C744.42,2635.491,745.6,2635.385,746.266,2633.971Z"/><path class="a" d="M720.838,2583.448c.612.792,1.421.41,2.278.319l.485-.531a2.336,2.336,0,0,0-.664-.337c-.541-.077-1.092-.087-1.64-.111a5.284,5.284,0,0,0-.571.035C720.759,2583.035,720.723,2583.3,720.838,2583.448Z"/><path class="a" d="M736.378,2642.665a.837.837,0,0,0-.227.346c-.164.505.308,1.036.423,1.548l-.019-.015c0,.01-.008.02-.012.03-.1.042-.19.087-.285.128a2.069,2.069,0,0,1,.084.309l-.04.017.006.015-.009-.021c0,.005.035,0,.032,0,.047.109.115.209.162.319l.021-.019.631-.281.017.009-.013-.012c0-.009,0-.017,0-.025.021-.152.069-.312.089-.464,0,0,0-.008,0-.011,0-.021,0-.042,0-.062s0-.023,0-.034,0-.039,0-.058,0-.023,0-.035a.449.449,0,0,0-.02-.087c-.326-.932.079-1.141.913-1.017a8.343,8.343,0,0,0,.882.016,3.6,3.6,0,0,0-.582-.4C737.765,2642.644,737.045,2642.021,736.378,2642.665Z"/><path class="a" d="M717.731,2642.211c1.315-.573,2.621-.865,3.538-1.9C718.97,2640.8,718.325,2641.152,717.731,2642.211Z"/><path class="a" d="M731.784,2647.357c0,.008-.006.015-.009.023s.009.025.013.038l.011-.033C731.793,2647.376,731.79,2647.367,731.784,2647.357Z"/><path class="a" d="M732.692,2644.424a1.631,1.631,0,0,0-.623.136c-.911.679-.99,1.585-.284,2.8.335-.778.686-1.549.99-2.339C732.838,2644.854,732.724,2644.624,732.692,2644.424Z"/><path class="a" d="M717.093,2631.29c-.07-.144-.141-.286-.211-.429-.779.281-1.587.5-2.33.856-1.2.574-1.193.637-.522,1.893C714.034,2631.594,715.956,2631.924,717.093,2631.29Z"/><path class="a" d="M738.556,2632.836l.024.013.023-.024h-.015Z"/><path class="a" d="M735.876,2633.515c-.261.233-.1.929-.137,1.414l.381.126c.246-1.423,1.351-1.808,2.435-2.219C737.449,2632.179,736.6,2632.865,735.876,2633.515Z"/><path class="a" d="M722.507,2634.036c.647-.27,1.267-.608,2.192-1.068a2.51,2.51,0,0,0-2.56.377c-.139.078-.164.36-.242.548C722.1,2633.946,722.352,2634.1,722.507,2634.036Z"/><path class="a" d="M718.924,2631.363l3.693-1.8C721.273,2629.249,719.952,2629.8,718.924,2631.363Z"/><path class="a" d="M707.724,2604.934c.559-.544,1.212-.991,1.821-1.486.265-.216.517-.448.969-.842-2,.219-2.889,1.521-3.952,2.575C707.037,2605.5,707.349,2605.3,707.724,2604.934Z"/><path class="a" d="M706.548,2605.2l.014-.014-.006,0Z"/><path class="a" d="M715.367,2637.029c1.919-.367,2.682-.778,3.491-1.967C717.575,2635.734,716.306,2635.879,715.367,2637.029Z"/><path class="a" d="M735.013,2644.919a6.552,6.552,0,0,0-.275-1c-.245.271-.6.5-.706.822a5.306,5.306,0,0,0-.079,1.379c.188.131.426.385.517.341a.994.994,0,0,0,.484-.541A2.552,2.552,0,0,0,735.013,2644.919Z"/><path class="a" d="M734.893,2614.973l.02.009-.039-.06Z"/><path class="a" d="M732.6,2609.394c.288,1.062.547,2.137.835,3.2,0,0-.041.005-.043,0l.025.055.041-.033c.094.21.2.413.3.622l-.011-.011c.373.565.751,1.131,1.125,1.7q-1.067-2.8-2.132-5.6Z"/><path class="a" d="M708.764,2617.16c.288,1.061.547,2.136.835,3.2,0,0-.041,0-.043,0l.024.056.041-.034c.094.21.2.413.3.622l-.011-.011c.373.565.751,1.13,1.125,1.7q-1.067-2.8-2.132-5.6Z"/><path class="a" d="M704.833,2601.516l3.148-2.034A3.356,3.356,0,0,0,704.833,2601.516Z"/><path class="a" d="M721.965,2592.667c-.44-.229-.693-.812-1.021-1.229-.3,1.726.1,1.973,2.654,1.389A4.43,4.43,0,0,1,721.965,2592.667Z"/><path class="a" d="M741.713,2641.264l2.5-.909c-.993-.189-1.955-.306-2.674.449Z"/><path class="a" d="M698.337,2603.485l4.953-2.144A14.213,14.213,0,0,0,698.337,2603.485Z"/><path class="a" d="M703.293,2601.346l.056-.01.008-.018Z"/><path class="a" d="M715.427,2597.55l-1.128,2.137C714.826,2599.083,715.956,2598.335,715.427,2597.55Z"/><path class="a" d="M706.029,2556.068l1,2.287C707.121,2556.842,707.121,2556.842,706.029,2556.068Z"/><path class="a" d="M739.572,2640.25l-.045.019h.036Z"/><path class="a" d="M738.061,2641.992c-.265-.638-.194-1.139.583-1.379.3-.093.59-.226.884-.344a3.516,3.516,0,0,0-1.15,0,6.4,6.4,0,0,0-1.237.722Z"/><path class="a" d="M738.087,2642.02l-.026-.028c.007.016.01.031.018.047Z"/><path class="a" d="M714.479,2592.4c0,.008.009.014.012.022s0-.009.008-.014Z"/><path class="a" d="M715.952,2593.292a1.457,1.457,0,0,1-1.46-.874c-.314.512-.326.974.348,1.163.622.173,1.271.25,1.909.367A.939.939,0,0,0,715.952,2593.292Z"/><path class="a" d="M729.077,2594.137l-2.348,0c0,.128,0,.256-.006.384l2.26-.01Q729.029,2594.323,729.077,2594.137Z"/><path class="a" d="M715.376,2589.8l-.2,1.553.563.049q.01-.789.02-1.576Z"/><path class="a" d="M728.933,2615.911a7.211,7.211,0,0,0-.531.747c.122.061.32.2.354.171a10.051,10.051,0,0,0,.7-.792C729.186,2615.968,728.974,2615.865,728.933,2615.911Z"/><path class="a" d="M699.066,2595.329l.126-.036c.016-.005.032-.012.048-.019l-.042,0Z"/><path class="a" d="M696.1,2596.6l2.957-1.28a25.364,25.364,0,0,1-3.1.891C696.008,2596.339,696.112,2596.594,696.1,2596.6Z"/><path class="a" d="M709.2,2587.2c.005.009.009.018.013.028l.006-.02Z"/><path class="a" d="M727.582,2578.891l.485-.5c-.182-.052-.387-.18-.544-.137-.179.049-.316.25-.471.385Z"/><path class="a" d="M725.165,2596.756c.645.437,1.209,1.036,2.124.921l-1.954-1.239C725.278,2596.545,725.221,2596.65,725.165,2596.756Z"/><path class="a" d="M722.084,2594.355c-1.425.271-1.469.329-1.241,1.434Z"/><path class="a" d="M743.226,2645.345l-1.638-.7-.124.482Z"/><path class="a" d="M724.6,2610.006c.2.465.4.931.611,1.392.018.038.154.025.205.143l-.767-1.751C724.688,2609.885,724.582,2609.972,724.6,2610.006Z"/><path class="a" d="M728.25,2589.792a16.853,16.853,0,0,1-2.453.64c.042.122.136.363.126.367Z"/><path class="a" d="M719.1,2618.065c.138.315.138.314.138.314l1.659-.718s0,0-.138-.314Z"/><path class="a" d="M747.366,2640.225l-1.65-.256c0,.155,0,.311,0,.467Z"/><path class="a" d="M731.7,2592.915l-1.423.159,1.394.319C731.677,2593.234,731.687,2593.074,731.7,2592.915Z"/><path class="a" d="M717.673,2597.708c.137.04.284.132.407.106s.238-.165.455-.332c-.264-.046-.425-.124-.544-.083S717.777,2597.6,717.673,2597.708Z"/><path class="a" d="M702.413,2592a12,12,0,0,1,2.222-.481,3.744,3.744,0,0,1-.132-.424Z"/><path class="a" d="M731.345,2589.037l-1.467.455,1.522-.14C731.381,2589.246,731.363,2589.142,731.345,2589.037Z"/><path class="a" d="M725.286,2615.011c.117.324.029.179.026.23.377-.14.737-.318,1.114-.458-.027-.062.04.092-.1-.222Z"/><path class="a" d="M733.373,2637.061a1.935,1.935,0,0,0,.169-.394c.006-.029-.221-.153-.24-.134a2.013,2.013,0,0,0-.241.35Z"/><path class="a" d="M711.392,2591.8c-.047.016-.079.072-.118.11-.4-.924-.734-1.891-2.109-1.584-.133.029-.313-.155-.493-.337-.074-.076-.148-.15-.219-.21-.5.67-.33,1.134.45,1.391s1.579.5,2.369.748c.331-.031.662-.06.991-.106a2.5,2.5,0,0,0-.009-.285C711.967,2591.621,711.678,2591.708,711.392,2591.8Z"/><path class="a" d="M729.435,2629.132a1.849,1.849,0,0,0,.574-.018c.11-.038.166-.23.349-.511a2.716,2.716,0,0,0-.747.122C729.508,2628.78,729.49,2628.991,729.435,2629.132Z"/><path class="a" d="M694.635,2590.881a5.767,5.767,0,0,0-.649.063c-.043.009-.058.155-.086.238a4.537,4.537,0,0,0,.6-.016C694.545,2591.158,694.574,2591.014,694.635,2590.881Z"/><path class="a" d="M717.174,2583.825l.312,0,.145-.268a1.715,1.715,0,0,0-.407-.017C717.191,2583.55,717.189,2583.727,717.174,2583.825Z"/><path class="a" d="M704.023,2596.161l.064,0,.084-.011-.078-.01Z"/><path class="a" d="M702.89,2596.446l1.133-.285-1.148-.079C702.88,2596.2,702.885,2596.325,702.89,2596.446Z"/><path class="a" d="M716.477,2601.172c.019-.14.073-.277.035-.312a2.039,2.039,0,0,0-.389-.234c-.019.12-.1.289-.045.35C716.162,2601.076,716.331,2601.105,716.477,2601.172Z"/><path class="a" d="M700.992,2561.641l.025-.066,0-.009h-.018C700.994,2561.592,700.993,2561.616,700.992,2561.641Z"/><path class="a" d="M700.96,2562.746c.011-.368.022-.737.032-1.1l-.388,1.027Z"/><path class="a" d="M700.892,2608.79q.183.418.366.837s0,0,.021-.006c-.1-.287-.19-.58-.292-.867C700.951,2608.768,700.893,2608.792,700.892,2608.79Z"/><path class="a" d="M716.21,2616.814l.438.708q-.14-.367-.281-.733Z"/><path class="a" d="M701.9,2556.265l-.316.006-.079.283c.1,0,.234.034.307-.014S701.877,2556.361,701.9,2556.265Z"/><path class="a" d="M728.635,2632.131h0l-.266-.117c-.013.052-.05.141-.036.15a1.906,1.906,0,0,0,.26.122l.042-.154Z"/><path class="a" d="M712.775,2589.708l.19-.392c-.1,0-.231-.031-.285.019a1.914,1.914,0,0,0-.258.379Z"/><path class="a" d="M730.589,2606.383h0l-.269-.125c-.022.089-.09.206-.056.259.045.07.169.09.259.132l.065-.265Z"/><path class="a" d="M731.9,2640.081h0l.15-.01a1.724,1.724,0,0,0-.063-.249c-.005-.013-.093.006-.143.01C731.862,2639.915,731.879,2640,731.9,2640.081Z"/><path class="a" d="M705.348,2616.494c.01.1.019.192.029.287l.108.115a1.82,1.82,0,0,0-.029-.294C705.447,2616.56,705.385,2616.53,705.348,2616.494Z"/><path class="a" d="M699.174,2599.123c-.046,0-.092.054-.138.084l.2.068.14-.089A.681.681,0,0,0,699.174,2599.123Z"/><path class="a" d="M727.543,2593.093l-1.3-.515A1.056,1.056,0,0,0,727.543,2593.093Z"/><path class="a" d="M726.248,2592.578l-.021-.027-.287-.156.28.171Z"/><path class="a" d="M702.28,2592.051c.01.006.019.013.03.019l.114-.049-.1.022Z"/><path class="a" d="M701.886,2591.852a1.5,1.5,0,0,0-.5.157,2.14,2.14,0,0,0,.451.11,1.974,1.974,0,0,0,.441-.068A.985.985,0,0,0,701.886,2591.852Z"/><path class="a" d="M699.653,2561.268c.043.032.086.09.127.089s.082-.062.121-.1l-.207-.147C699.681,2561.164,699.667,2561.216,699.653,2561.268Z"/><path class="a" d="M705.025,2584.554l.01-.035c-.005-.012-.011-.023-.016-.037,0,.011-.007.02-.009.03S705.021,2584.541,705.025,2584.554Z"/><path class="a" d="M704.953,2585.487a1.742,1.742,0,0,0,.2-.5,1.154,1.154,0,0,0-.126-.435,2.5,2.5,0,0,0-.112.45A2.717,2.717,0,0,0,704.953,2585.487Z"/><path class="a" d="M701.344,2564.033l-.019.021.007,0,.866,1.135.019,0-.008-.023Z"/><path class="a" d="M701.706,2563.171c.007-.094.011-.163.017-.231-.033.027-.089.053-.09.082S701.669,2563.1,701.706,2563.171Z"/><path class="a" d="M699.24,2595.274a1.879,1.879,0,0,0,.294,0,2.393,2.393,0,0,0,.323-.076,1.915,1.915,0,0,0-.347-.017A1.224,1.224,0,0,0,699.24,2595.274Z"/><path class="a" d="M718.78,2592.259c-.046-.008-.1-.038-.135-.021s-.055.083-.1.157Z"/><path class="a" d="M729.784,2589.521l.093-.029c-.029,0-.061,0-.089,0a6.444,6.444,0,0,0-1.42.246l-.119.051a.856.856,0,0,1,.115-.024C728.837,2589.684,729.312,2589.6,729.784,2589.521Z"/><path class="a" d="M717.832,2590.586l.045-.015-.036,0Z"/><path class="a" d="M717.876,2590.571a1.65,1.65,0,0,0,.3.021,2.049,2.049,0,0,0,.323-.07,1.893,1.893,0,0,0-.342-.027A1.3,1.3,0,0,0,717.876,2590.571Z"/><path class="a" d="M743.371,2645.424l-.055-.068-.09-.011.079.034Z"/><path class="a" d="M743.63,2645.6l-.259-.178a1.56,1.56,0,0,0,.137.156C743.533,2645.6,743.589,2645.595,743.63,2645.6Z"/><path class="a" d="M724.778,2580.4l-.1-.007.047.086Z"/><path class="a" d="M704.172,2596.154a1.859,1.859,0,0,0,.249.024c.038,0,.076-.047.115-.073Z"/><path class="a" d="M701.673,2589.566l-.23.223c.057-.034.113-.069.166-.109C701.641,2589.656,701.652,2589.6,701.673,2589.566Z"/><path class="a" d="M701.443,2589.789l-.1.062-.278.344.3-.332Z"/><path class="a" d="M729.54,2618.529c-.015-.149-.03-.3-.045-.445l.173-.46.026-.054-.034.052-.185.455C729.5,2618.227,729.518,2618.378,729.54,2618.529Z"/><path class="a" d="M741.619,2642.792a1.847,1.847,0,0,0,.217.147q-.119-.144-.236-.289C741.605,2642.7,741.592,2642.768,741.619,2642.792Z"/><path class="a" d="M730.937,2605.579l-.248-.273a2.311,2.311,0,0,0,.126.209C730.839,2605.549,730.9,2605.559,730.937,2605.579Z"/><path class="a" d="M744.984,2646.286c-.033-.01-.078.019-.117.031l.317.049A1.832,1.832,0,0,0,744.984,2646.286Z"/><path class="a" d="M741,2636.466l.126-.014-.062-.084Z"/><path class="a" d="M706.034,2595.064l.021.089.086-.073Z"/><path class="a" d="M707.873,2560.107l.008-.019-.723-.812-.027-.007.016.028Z"/><path class="a" d="M713.992,2624.789c.09.2.179.406.268.61l.017.007c-.092-.212-.184-.425-.277-.637Z"/><path class="a" d="M725.512,2643.363c.694-.365,1.4-.71,2.071-1.111.127-.076.119-.375.172-.572-.2-.032-.428-.138-.6-.083a2.481,2.481,0,0,0-1.659,1.762c.008.11.017.22.025.33C725.516,2643.581,725.514,2643.472,725.512,2643.363Z"/><path class="a" d="M725.844,2582.262l.045-.01c-.011-.005-.024-.009-.034-.015l-.773-.037,0,.009Z"/><path class="a" d="M731.8,2586.391l-.134.013.126.006Z"/><path class="a" d="M723.088,2573.338c.575.118,1.256.49,1.705.306a37.172,37.172,0,0,0,3.923-2.041c.2-.113.29-.422.431-.64-.245-.073-.542-.273-.728-.2-1.832.729-3.647,1.5-5.467,2.266l-.024-.008.148.335Z"/><path class="a" d="M722.882,2594.383l.17-.025h-.162l-.783-.031-.023.026.015,0Z"/><path class="a" d="M745.849,2646.9l.008-.018-.588-.5-.085-.014.076.033Z"/><path class="a" d="M722.9,2596.98l-.465-.182-.008.021.465.181.145-.019Z"/><path class="a" d="M712.325,2554.805l-.021.024.039-.017Z"/><path class="a" d="M742.09,2643.133l-.153-.1a.276.276,0,0,0,.047.057A.33.33,0,0,0,742.09,2643.133Z"/><path class="a" d="M741.937,2643.034c-.013-.018-.024-.037-.037-.055l-.063-.04.052.064Z"/><path class="a" d="M736.25,2644.682l-.051-.034a.249.249,0,0,0-.042-.049.361.361,0,0,0-.1-.047l.142.1c.014.019.026.04.041.059l.018-.008c0-.006-.005-.01-.008-.017Z"/><path class="a" d="M728.355,2593.135l.77.04,1.083-.093.065-.008-.059-.013-1.082.094-.77-.041-.782-.032c-.013.005-.024.006-.037.011l.029.012Z"/><path class="a" d="M711.509,2555.521l-.033.014h0l.077-.01a.772.772,0,0,1,.119,0h0l-.119,0c.316-.137.261-.125.261-.125s-.023.017-.025.011a2.724,2.724,0,0,0,.446-.549c-.2.084-.281.118-.6.253a.127.127,0,0,0-.011-.018l-.318.137.007.02,0-.007h0s-.36.162-.557.25a1.979,1.979,0,0,0,.754.024Z"/><path class="a" d="M729.329,2597.936l-2-.261c-.016,0-.029,0-.045,0l.036.023,2,.256.78.032.16-.014-.154-.007Z"/><path class="a" d="M747.57,2640.223l-.125-.007-.079.01.072.011Z"/><path class="a" d="M724.235,2606.868c.1-.04.191-.081.285-.122l-.115-.276Q724.321,2606.669,724.235,2606.868Z"/><path class="a" d="M724.227,2606.888l.008-.02-.027.012Z"/><path class="a" d="M724.521,2606.746c0,.006.005.013.008.019l.138-.014-.127-.013Z"/><path class="a" d="M708.777,2589.623l-.019.008a.14.14,0,0,1,.008.019Z"/><path class="a" d="M703.458,2563.835l.052.03,0-.006h0Z"/><path class="a" d="M724.265,2606.1l-.263-.594c.009-.257.018-.514.027-.771l-.013-.006-.037.77.275.62.138.321.012.03.01-.024Z"/><path class="a" d="M694.449,2565.474a.525.525,0,0,0-.092-.21l-.026-.059-.327.147h0l.138.33.334-.145-.027-.063Z"/><path class="a" d="M736.3,2627.509l-.059-.03-.218-.074.212.09Z"/><path class="a" d="M726.758,2605.774l-.032.014h0c-.013.107-.026.216-.039.323.021-.1.041-.207.062-.311C726.752,2605.791,726.756,2605.783,726.758,2605.774Z"/><path class="a" d="M736.021,2627.406l-.238-.1-.015.019.008,0Z"/><path class="a" d="M726.993,2605.7a3.582,3.582,0,0,0,.366-.188l.011,0h0l1.38-.6c-.654-.091-1.1-.242-1.542-.289-.916-.095-.1.533-.31.729l-.054.01.012.028c.042.1-.109.275-.164.413.1-.04.291-.123.291-.122Z"/><path class="b" d="M730.05,2650.365l-.042.045c-.051-.119-.1-.236-.155-.354h.06c-.117-.4-.176-.791.408-.939.877-.224,1.2-.941,1.466-1.7,0-.012-.01-.025-.013-.038a.244.244,0,0,0,.01-.023c-.706-1.212-.627-2.118.284-2.8a1.645,1.645,0,0,1,.624-.137c.031.2.146.431.083.595-.3.79-.655,1.562-.99,2.339.005.01.009.019.014.028s-.007.021-.012.032c.075.25.236.525.176.736-.422,1.464-.884,2.919-1.359,4.368a6.218,6.218,0,0,1-1.127,2.16C729.674,2653.24,729.854,2651.806,730.05,2650.365Zm5.106.42-.006.016-.152-.351.015,0c-.136-.57-.689-1.3.531-1.339-.006,0-.015-.013-.021-.011l.064-.027a.269.269,0,0,0,.054-.042.773.773,0,0,1,.1-.066.09.09,0,0,1,.057,0c.014,0,.03.009.04,0l.03-.012.148.343-.018-.005h0l.019.008L736,2649.3q.54,2.469,1.081,4.94C735.578,2653.458,735.654,2651.983,735.156,2650.785Zm4.092-3.633a11.313,11.313,0,0,1,3.956,4.195A15.553,15.553,0,0,1,739.248,2647.152Zm-12.613.655a3.978,3.978,0,0,0,1.523-1.945,2.992,2.992,0,0,1,2.723-2.211c-.89,1.148-2.134,2.06-2.414,3.616a.846.846,0,0,1-.3.405c-1.136.99-2.279,1.971-3.718,3.211A5.111,5.111,0,0,1,726.635,2647.807Zm-6.787-.878c.482-1.246,1.629-1.734,2.765-2.219a.619.619,0,0,1,.445.087c.008.2.011.5-.111.584-.913.655-1.857,1.269-2.79,1.9Zm25.411-.531c-.025-.01-.05-.021-.076-.033l.085.013.589.5-.007.019Zm-11.307-.28a5.325,5.325,0,0,1,.079-1.379c.1-.317.462-.551.706-.822a6.408,6.408,0,0,1,.275,1,2.556,2.556,0,0,1-.059,1,1,1,0,0,1-.484.541.052.052,0,0,1-.023.005C734.342,2646.465,734.127,2646.24,733.953,2646.119Zm10.913.2c.04-.012.085-.041.118-.031a1.77,1.77,0,0,1,.2.079Zm-1.358-.737a1.778,1.778,0,0,1-.137-.156l.259.177C743.588,2645.595,743.533,2645.6,743.508,2645.58Zm-.2-.2-.078-.034.089.011.056.068Zm-6.972-.353s-.008,0-.016,0h0l.03-.013a2.159,2.159,0,0,0-.085-.309c.1-.041.19-.086.285-.129a.265.265,0,0,0,.012-.029l.019.014c-.115-.512-.587-1.042-.423-1.548a.825.825,0,0,1,.227-.346c.667-.644,1.387-.021,2.063.2a3.615,3.615,0,0,1,.582.4c-.157,0-.285,0-.394,0a3.151,3.151,0,0,1-.488-.015c-.833-.123-1.239.085-.913,1.017a.4.4,0,0,1,.02.087.213.213,0,0,1,0,.034c0,.019,0,.038,0,.058s0,.021,0,.033,0,.042,0,.063l0,.011c-.019.152-.068.313-.088.464,0,.009,0,.017,0,.025l.013.013-.018-.009-.631.281-.022.019C736.448,2645.236,736.38,2645.135,736.332,2645.026Zm5.132.1c.041-.16.082-.322.123-.482l1.639.7Zm-5.161-.1.005.013Zm0-.008s.006,0,.013,0l-.011,0v0A.033.033,0,0,0,736.3,2645.023Zm-.1-.375-.141-.094a.343.343,0,0,1,.1.047.255.255,0,0,1,.042.049l.05.033h0a.087.087,0,0,0,.007.016l-.017.008Zm-10.706-1.288a2.483,2.483,0,0,1,1.659-1.762c.175-.055.4.052.6.083-.053.2-.045.5-.172.572-.671.4-1.377.746-2.071,1.111,0,.109,0,.218.006.326Zm5.4.272-.008.019h-.008A.147.147,0,0,1,730.9,2643.631Zm11.087-.54a.274.274,0,0,1-.047-.058c.05.033.1.067.152.1A.317.317,0,0,1,741.984,2643.091Zm-.1-.088-.051-.064.063.04c.013.018.025.037.038.055Zm-.269-.212c-.027-.023-.013-.094-.018-.142.077.1.157.193.236.29A1.875,1.875,0,0,1,741.619,2642.792Zm-20.351-2.477c-.916,1.031-2.223,1.323-3.538,1.9C718.324,2641.152,718.97,2640.8,721.268,2640.315Zm16.793,1.678.025.027-.008.019C738.071,2642.023,738.068,2642.008,738.061,2641.992Zm-.92-1a6.37,6.37,0,0,1,1.236-.722,3.525,3.525,0,0,1,1.15,0c-.293.118-.582.251-.884.344-.777.24-.847.741-.582,1.38Zm4.393-.191c.718-.754,1.68-.638,2.674-.449l-2.5.909Zm4.181-.834,1.65.256-1.654.211C745.712,2640.281,745.714,2640.125,745.716,2639.969Zm-23.107.156a11.41,11.41,0,0,1,1.51-1.285,4.008,4.008,0,0,1,2.009-.552,28.527,28.527,0,0,1-2.354,2.042.308.308,0,0,1-.183.048A6.6,6.6,0,0,1,722.609,2640.125Zm16.918.144c.015-.005.03-.012.045-.019l-.009.021Zm7.838-.043.079-.01.126.007-.132.014Zm-24.767-.1.011,0c-.006,0-.012.011-.018.016Zm9.3-.041c-.019-.083-.036-.166-.054-.249.049,0,.137-.022.142-.009a1.615,1.615,0,0,1,.063.248l-.15.011Zm-2.631-1.183c.526-1.118,1.079-2.222,1.792-3.671.237,1.99.117,3.4-1.654,4.106C729.356,2639.184,729.221,2639,729.267,2638.9Zm7.826-1.719a2.238,2.238,0,0,1,2.583-.63,6.212,6.212,0,0,0-1.434.857,6.917,6.917,0,0,0-.759,1.535C736.844,2638.343,736.653,2637.712,737.093,2637.179Zm-4.031-.3a2.052,2.052,0,0,1,.24-.35c.019-.019.247.105.24.134a1.952,1.952,0,0,1-.169.393Zm-14.2-1.822c-.81,1.19-1.573,1.6-3.492,1.967C716.306,2635.879,717.575,2635.734,718.859,2635.062Zm22.209,1.307.062.084-.126.014Zm2.128-.891c-.052-.144-.1-.287-.154-.43l3.224-1.075a2.739,2.739,0,0,1-2.894,1.507Zm-7.457-.548c.033-.485-.124-1.181.137-1.414.727-.651,1.573-1.337,2.68-.68-1.085.411-2.19.8-2.436,2.219Zm-13.842-1.036c.077-.188.1-.47.242-.548a2.508,2.508,0,0,1,2.56-.376c-.925.46-1.544.8-2.191,1.067a.228.228,0,0,1-.086.016A2.736,2.736,0,0,1,721.9,2633.893Zm-7.347-2.177c.744-.355,1.552-.574,2.331-.856.07.144.14.285.211.429-1.137.635-3.059.305-3.064,2.319C713.358,2632.353,713.347,2632.29,714.551,2631.716Zm24.052,1.109a14.568,14.568,0,0,1,5.425-3.83l0-.015.02.007-.017.008c.053.292.221.77.127.828-1.666,1.033-3.363,2.019-5.064,3a.318.318,0,0,1-.158.034C738.829,2632.855,738.709,2632.829,738.6,2632.825Zm-.047.011.031-.012h.015c-.007.008-.016.015-.023.024Zm-10.223-.672c-.014-.009.022-.1.036-.15l.266.118c-.014.052-.028.1-.042.154A1.956,1.956,0,0,1,728.333,2632.164Zm-2.643-.861,1.427-3.479.25.047q.119,1.118.235,2.235l-1.655,1.319Zm-3.073-1.742-3.693,1.8C719.951,2629.8,721.273,2629.248,722.616,2629.561Zm4.986.545.005,0,0,.011Zm6.565-2.356a9.682,9.682,0,0,1,1.6-.425c-.268.339-.523.69-.811,1.013-.452.508-.927,1-1.378,1.475C732.931,2628.631,732.992,2628.277,734.167,2627.749Zm-22.038,1.885a.547.547,0,0,1-.119-.471,1.356,1.356,0,0,1,.526-.642c1.835-.8,3.688-1.562,5.536-2.334,2.438.648,4.242-1,6.263-1.78s3.964-1.794,5.917-2.75c.326-.159.812-.716.758-.806-.462-.75.366-.49.537-.686a5.065,5.065,0,0,1,1.1-.806c.712-.456,1.464-.854,2.147-1.348.958-.691,1.832-.527,2.917.259-.681.443-1.193.8-1.726,1.119a89.48,89.48,0,0,1-15.671,7.776c-2.56.925-5.171,1.712-7.763,2.549a.445.445,0,0,1-.125.017A.427.427,0,0,1,712.129,2629.635Zm17.483-.5c-.059,0-.119-.007-.176-.006.055-.141.073-.353.176-.408a2.73,2.73,0,0,1,.747-.122c-.183.282-.239.473-.349.512a.677.677,0,0,1-.223.031C729.727,2629.147,729.67,2629.142,729.611,2629.139Zm6.622-1.643-.212-.091.218.074.059.03Zm-.457-.174-.008,0a.142.142,0,0,1,.015-.02l.238.1Zm-3.912-2.631a2.688,2.688,0,0,1,1.218-.9c1.811-.288,2.979-1.588,4.383-2.526a10.755,10.755,0,0,1,1.73-.769l.187.432c-1.212.923-2.374,1.925-3.655,2.742a22.175,22.175,0,0,1-2.623,1.068,1.447,1.447,0,0,0-.961,1.937C731.306,2626.051,731.183,2625.389,731.864,2624.692Zm6.489,1.306,2.769-2.244c.958,1.007.97,1.069-.335,1.712-.724.355-1.509.588-2.267.875Zm-24.093-.6q-.134-.305-.268-.61l.009-.021q.139.32.277.638Zm-4.352-4.406.012.011c-.094-.209-.2-.412-.3-.622l-.041.033-.024-.056s.01,0,.02,0,.021,0,.023,0c-.289-1.062-.547-2.137-.835-3.2l.136-.067q1.068,2.8,2.132,5.6C710.659,2622.123,710.281,2621.558,709.907,2620.993Zm19.567-2.917c.062-.15.124-.3.185-.454l.034-.051-.026.054-.173.46c.015.149.03.3.045.445C729.518,2618.378,729.5,2618.227,729.474,2618.076Zm-10.379-.011q.829-.359,1.658-.718c.13.294.138.313.139.314l-1.659.718S719.232,2618.378,719.1,2618.065Zm-2.885-1.251.157-.025.281.733Q716.428,2617.168,716.21,2616.814Zm-10.833-.033c-.01-.094-.019-.191-.029-.286.038.036.1.066.108.108a1.853,1.853,0,0,1,.029.293Zm23.025-.123a7.265,7.265,0,0,1,.531-.747c.041-.047.254.057.519.126a10.5,10.5,0,0,1-.7.792.023.023,0,0,1-.014,0A1.963,1.963,0,0,1,728.4,2616.658Zm-3.072-1.428c.019,0,.039.009-.043-.219l1.041-.451c.094.214.093.211.091.207l.007.016c-.376.141-.736.318-1.113.458C725.313,2615.226,725.322,2615.228,725.33,2615.23Zm9.563-.257-.02-.052c.013.02.027.04.04.06Zm-1.148-1.746.012.011c-.094-.21-.2-.411-.3-.622l-.041.033-.024-.055s.01,0,.02,0,.021,0,.023,0c-.289-1.062-.547-2.137-.835-3.2l.137-.067q1.066,2.8,2.131,5.6C734.5,2614.357,734.118,2613.792,733.745,2613.227Zm-8.537-1.829c-.211-.46-.41-.926-.611-1.391-.014-.034.092-.121.049-.217l.766,1.751C725.36,2611.423,725.224,2611.437,725.207,2611.4Zm-23.949-1.771-.366-.836s.059-.022.1-.037c.1.287.19.58.292.867l-.02.006Zm.213-1.719,3.326-2.222.277.453a10.128,10.128,0,0,1-3.351,2.156Zm22.737-1.028.027-.012-.008.021Zm.2-.41-.013-.03-.139-.321c-.092-.206-.184-.414-.275-.62q.018-.385.037-.771l.013.006-.027.771.263.594c.05.115.1.231.15.346,0,.007-.006.015-.01.023.039.092.076.185.115.276l-.285.122Zm.115.276.019-.008.127.012-.138.014Zm5.744-.23c-.034-.052.033-.169.056-.258l.269.124h0c-.022.088-.044.176-.066.264C730.434,2606.606,730.31,2606.586,730.265,2606.516Zm-3.539-.727-.032.013c.055-.139.206-.318.164-.413,0-.01-.008-.019-.012-.029l.054-.01c.206-.2-.607-.824.31-.73.44.047.888.2,1.542.289l-1.38.6h0s0,0,0,0l-.01,0a3.353,3.353,0,0,1-.366.188.188.188,0,0,1-.008-.02s-.128.054-.228.1a.2.2,0,0,1-.009.024c-.021.1-.041.208-.062.311C726.7,2606,726.712,2605.9,726.726,2605.789Zm4.09-.274a2.415,2.415,0,0,1-.126-.209l.248.273C730.9,2605.559,730.839,2605.549,730.815,2605.515Zm-24.253-.335c1.063-1.054,1.954-2.355,3.952-2.575-.453.394-.7.626-.969.842-.608.5-1.262.941-1.821,1.486a1.1,1.1,0,0,1-.716.407A.792.792,0,0,1,706.562,2605.181Zm24.074.066c-.022-.02-.043-.04-.064-.06l.073.04c.015.026.03.053.044.08Zm-24.08-.07.006,0c-.005,0-.009.01-.014.014Zm24.016.009h0Zm-.292-.156h.041a.144.144,0,0,1,.086.013,1.821,1.821,0,0,1,.166.145Zm-26.989-3.689-4.954,2.144A14.24,14.24,0,0,1,703.291,2601.341Zm4.691-1.859-3.148,2.035A3.356,3.356,0,0,1,707.981,2599.482Zm-4.624,1.837-.008.018-.057.01Zm12.721-.343c-.051-.061.025-.23.045-.35a2.032,2.032,0,0,1,.39.234c.039.035-.016.172-.035.312C716.331,2601.105,716.162,2601.077,716.078,2600.976Zm-.652-3.426c.53.785-.6,1.532-1.128,2.137Zm-16.39,1.657c.046-.031.092-.085.138-.085a.7.7,0,0,1,.2.063l-.139.089Zm30.286-1.251-2-.257-.037-.022c.016,0,.03,0,.045,0l2,.261.781.032.154.006-.161.014Zm-11.65-.248c.1-.108.191-.265.318-.308s.28.036.544.082c-.216.167-.324.3-.455.332a.246.246,0,0,1-.044,0A1.526,1.526,0,0,1,717.673,2597.709Zm7.492-.953c.057-.106.113-.21.169-.317l1.954,1.238a1.744,1.744,0,0,1-.224.014A3.437,3.437,0,0,1,725.165,2596.756Zm-2.735.063.008-.02.465.182h.136l-.145.019C722.741,2596.939,722.585,2596.879,722.43,2596.819Zm-26.47-.609a25.332,25.332,0,0,0,3.1-.892l-2.957,1.28C696.111,2596.594,696.008,2596.339,695.96,2596.209Zm6.915-.128,1.148.079-1.133.285C702.885,2596.324,702.88,2596.2,702.875,2596.082Zm1.545.1a1.782,1.782,0,0,1-.248-.023l.364-.05c-.038.026-.076.073-.113.073Zm-.4-.017.07-.017.078.011-.085.011Zm18.061-1.806-1.241,1.434C720.616,2594.684,720.659,2594.625,722.084,2594.354Zm-22.887.917.042,0c-.016.006-.032.014-.048.018l-.127.036Zm.042,0a1.227,1.227,0,0,1,.27-.088,1.984,1.984,0,0,1,.347.016,2.457,2.457,0,0,1-.323.077.822.822,0,0,1-.1,0C699.373,2595.283,699.306,2595.278,699.24,2595.274Zm6.794-.21.107.016-.086.073Zm-10.816-.417,4.536-1.663c.041.109.079.216.12.324a12.023,12.023,0,0,1-4.584,1.684C695.265,2594.878,695.242,2594.763,695.218,2594.648Zm31.512-.513,2.347,0c-.031.124-.063.248-.094.372l-2.26.011C726.725,2594.39,726.728,2594.263,726.729,2594.135Zm-4.63.217-.014,0,.023-.025.783.03h.161l-.169.024Zm-7.258-.771c-.675-.188-.662-.65-.348-1.163,0-.007-.009-.014-.013-.022l.02.008-.007.014a1.457,1.457,0,0,0,1.46.875.939.939,0,0,1,.8.655C716.111,2593.83,715.461,2593.754,714.84,2593.581Zm15.433-.506,1.423-.159c-.01.158-.019.319-.029.478Zm-1.919.06-.783-.03-.029-.012c.013,0,.023-.006.037-.012l.781.032.771.041,1.082-.094.059.013-.066.007-1.083.094Zm-2.107-.557q.647.258,1.3.516a1.083,1.083,0,0,1-.373.072A1.19,1.19,0,0,1,726.248,2592.578Zm-5.3-1.14c.328.418.581,1,1.022,1.23a2.4,2.4,0,0,0,1.113.151c.175,0,.351,0,.519.008a8.957,8.957,0,0,1-1.811.283C720.862,2593.111,720.74,2592.623,720.944,2591.438Zm5.275,1.129-.28-.171.287.156.022.027Zm-7.573-.329c.031-.017.088.013.134.021-.069.042-.139.081-.235.137C718.59,2592.321,718.607,2592.26,718.646,2592.238Zm-16.807-.119a2.155,2.155,0,0,1-.451-.11,1.482,1.482,0,0,1,.5-.156.983.983,0,0,1,.393.2,2.25,2.25,0,0,1-.417.069Zm.441-.068.039-.008.1-.023-.113.05A.314.314,0,0,1,702.28,2592.051Zm2.224-.958a3.694,3.694,0,0,0,.131.424,12.023,12.023,0,0,0-2.222.481Zm4.4.082c-.78-.256-.95-.721-.45-1.391.07.059.144.134.219.211.18.182.36.366.492.336,1.375-.307,1.712.662,2.109,1.585.04-.038.072-.094.119-.111.285-.1.574-.183.862-.274a2.436,2.436,0,0,1,.009.285c-.328.046-.66.075-.991.105C710.483,2591.672,709.691,2591.431,708.9,2591.174Zm6.276.175.2-1.552.386.025q-.011.788-.02,1.577Zm-21.108-.167H693.9c.029-.083.043-.229.086-.238a5.737,5.737,0,0,1,.65-.063c-.061.132-.09.277-.139.284a2.109,2.109,0,0,1-.3.017Zm31.725-.75a16.785,16.785,0,0,0,2.452-.641l-2.326,1.008C725.933,2590.795,725.838,2590.555,725.8,2590.432Zm-7.921.138a1.346,1.346,0,0,1,.277-.075,1.922,1.922,0,0,1,.343.027,1.966,1.966,0,0,1-.323.07l-.049,0A2.083,2.083,0,0,1,717.876,2590.571Zm-.036,0,.036,0-.044.015Zm-16.5-.718.1-.061-.077.075-.3.331Zm7.049-.053h-.026l.075-.032.026-.01c0,.008-.024.023-.027.031s-.02.011-.021.013A.058.058,0,0,0,708.391,2589.8Zm-.026,0h0Zm20-.056a6.455,6.455,0,0,1,1.42-.247c.029,0,.06,0,.089,0l-.093.029c-.472.085-.948.163-1.42.248a.99.99,0,0,0-.115.023Zm-26.695-.175c-.022.039-.032.09-.064.114-.053.04-.11.075-.167.109C701.519,2589.714,701.6,2589.639,701.673,2589.566Zm6.823.175-.011.006-.02.007Zm.112-.378s.013-.008.023-.013l0-.006c0-.008.007-.018.012-.026s0-.014,0-.021c.03-.013.059-.024.086-.038,0,.008,0,.015,0,.023s-.011.023-.011.023v0c0,.007-.076.032-.072.039s-.006,0-.013.007l.127.28-.262.111A.408.408,0,0,0,708.608,2589.363Zm4.073-.029c.036-.035.111-.029.185-.023.034,0,.068.005.1,0-.066.137-.132.273-.19.392l-.353.006A1.88,1.88,0,0,1,712.68,2589.334Zm-3.922.3.019-.007-.011.026A.2.2,0,0,0,708.758,2589.63Zm22.586-.593c.018.1.037.209.055.314l-1.522.14Zm-22.132-1.808c.026.054.051.106.076.158.346.77.372,1.451-.557,1.872A19.107,19.107,0,0,1,709.213,2587.229Zm-16.018,1.3c0-.115,0-.231-.005-.346,1.135-.354,2.261-.742,3.406-1.052a5.7,5.7,0,0,0,3.011-1.492,1.7,1.7,0,0,1,.923-.375c1.108-.2,2.223-.358,3.475-.554-.147.3-.221.746-.418.806-1.148.353-2.11,1.338-3.5.967-.329-.088-.788.338-1.2.5-1.53.607-3.055,1.236-4.609,1.778a.494.494,0,0,1-.16.024A4.928,4.928,0,0,1,693.194,2588.533Zm28.777-1.188c-.689-.047-.985-.5-.816-1.2q.024-.313.048-.627c-.014.21-.028.419-.041.63,1.006,1.185,2.315.924,3.461.475a4.718,4.718,0,0,1,2.47-.323c.73.1,1.48.028,2.219.077a1.332,1.332,0,0,1,1.018.563c-1.215.054-2.431.1-3.646.165-.78.043-1.557.136-2.336.18-.593.033-1.189.082-1.781.082C722.366,2587.364,722.168,2587.359,721.971,2587.345ZM709.2,2587.2l.019.008-.005.02A.267.267,0,0,0,709.2,2587.2Zm22.469-.8.133-.012-.007.019Zm-15.827-.056a22.685,22.685,0,0,1-2.709-.835c-.33-.129-.566-.5-.844-.765l.494-.576-.024-.009a7.207,7.207,0,0,1,4.264,2.116c-.362.026-.662.1-.927.1A1.079,1.079,0,0,1,715.84,2586.348ZM704.913,2585a2.434,2.434,0,0,1,.112-.45c0-.014-.011-.028-.014-.042s.006-.019.009-.03l.016.036-.011.035a1.139,1.139,0,0,1,.126.435,1.73,1.73,0,0,1-.2.5A2.654,2.654,0,0,1,704.913,2585Zm7.37-.26,0,0-.011.014Zm-19.83-1.212a9.021,9.021,0,0,1,4.847-1.45c.281-.011.755.455.836.777.128.51-.048.938-.815.9a5.157,5.157,0,0,0-.576.008c-.038,0-.076.009-.112.013-.534.045-1.071.146-1.606.207l-.007.013Zm28.384-.084c-.115-.148-.078-.413-.112-.625a5.555,5.555,0,0,1,.571-.035c.548.024,1.1.034,1.64.111a2.353,2.353,0,0,1,.664.338l-.485.531c-.444.047-.874.171-1.271.171A1.175,1.175,0,0,1,720.838,2583.448Zm-3.665.377c.016-.1.018-.275.049-.281a1.668,1.668,0,0,1,.408.017c-.049.089-.1.178-.145.267Zm-17.089-2.029-.014.028a.227.227,0,0,0,.011-.03l-.421-.3.6-.141a.171.171,0,0,0,.009-.023l0,.022c.732-.1,1.462-.245,2.2-.276.283-.012.576.236.865.365-.211.213-.416.434-.635.637-.1.1-.238.159-.721.476.564.09.846.135,1.114.176a2.69,2.69,0,0,1-1.059.24A2.375,2.375,0,0,1,700.084,2581.8Zm3,.933c.017-.006.031-.01.048-.017a.054.054,0,0,0,.014.005l-.021.018Zm22.809-.478c1.491-.31,2.979-.628,4.474-.915.191-.037.417.1.677.177a5.953,5.953,0,0,1-3.491,1.047A3.922,3.922,0,0,1,725.889,2582.252Zm-.811-.042,0-.009.773.036c.011.006.023.01.034.015l-.045.01Zm-18.95-1.23a2.6,2.6,0,0,0,1.453-1.791,1.758,1.758,0,0,0,1.747-1.256l-.008,0-.017-.021.032,0c0,.007-.005.014-.007.021.486.219.806.587.38,1.041a27.392,27.392,0,0,1-2.362,2.192.726.726,0,0,1-.474.185A1.118,1.118,0,0,1,706.128,2580.979Zm-13.834-2.473c1.745-.642,3.7-.653,5.4-1.5a2.289,2.289,0,0,1,.6,2.081c-1.607,1.22-3.9.891-5.538,2.148C693.149,2580.249,691.766,2579.564,692.294,2578.506Zm32.387,1.89.1.008-.049.078Zm-20.476-1.516c.141,0,.312,0,.478,0h.2s0,.009,0,.013c.209.131.451.257.724.429a1.164,1.164,0,0,1-.455.1C704.745,2579.429,704.489,2579.14,704.206,2578.881Zm22.846-.24c.155-.135.292-.336.471-.385.157-.044.362.084.544.137l-.484.5Zm-22.17.242a.775.775,0,0,1,.025-.094l.023.085s.1.01.1.008v0Zm8.536-1.744.019.007-.021-.021a.07.07,0,0,0,0,.014c-.832-.337-1.885-.468-1.658-1.782a11.713,11.713,0,0,0,2.278-2.546c1.967.225,2.314,2.073,3.7,3.2-1.4.954-2.212,2.186-3.473,2.688C713.426,2578.3,713.493,2577.686,713.418,2577.138Zm.88-.356c.039-.863,1.258-.689.9-1.677l.021.023-.788-1.346C714.27,2574.806,712.813,2575.437,714.3,2576.782Zm-6.875.4c-.078-.5-.516-1-.223-1.874l2.1,2.6A3.058,3.058,0,0,1,707.423,2577.184Zm-2.649.412c.33-.185.542-.441,1.039-.305-.186.3-.364.456-.591.456A.916.916,0,0,1,704.775,2577.6Zm-5.74-2.452.019.008,0,0Zm22.456-1.113.015.006-.015,0Zm-25.474-.15a20.806,20.806,0,0,1-2.208-.148c-1.373-.168-1.372-.186-1.377-1.694l-.021-.006c.005-.044.01-.087.015-.131,0,.044,0,.088.005.132,1.16.058,2.32.127,3.481.171.155.005.318,0,.481-.014.634-.038,1.269-.075,1.493.795.156.606-.406.9-1.736.9Zm27.072-.542-.013.019c-.049-.111-.1-.223-.148-.335l.024.007c1.82-.761,3.634-1.536,5.467-2.266.186-.074.483.127.728.2-.141.219-.23.528-.431.641a37.039,37.039,0,0,1-3.923,2.04.73.73,0,0,1-.284.052A8.633,8.633,0,0,1,723.088,2573.339Zm-13.989.1a.012.012,0,0,1,0,.006c-.007,0-.013.011-.022.015Zm-2.379-.5.011-.006-.008.019S706.721,2572.938,706.721,2572.935Zm-3.814-.291.016-.02.071.05Zm3.786-.279,0,0,0,0a.043.043,0,0,0,.008-.009l.012-.009-.022.021Zm3.464-1.232c.482.55.139.8-.294,1.123C709.589,2571.726,709.676,2571.4,710.157,2571.133Zm-3.857-1.667a5.927,5.927,0,0,0,1.451,1.682C706.773,2570.992,706.227,2570.484,706.3,2569.466Zm-13.272.519a4.178,4.178,0,0,0-.446-1.92,13.819,13.819,0,0,1,5.736-.25,1.812,1.812,0,0,1-.144,2.049,25.154,25.154,0,0,1-3.222.245A14.344,14.344,0,0,1,693.027,2569.985Zm.453-.892a6.746,6.746,0,0,0,4.329-.242,10.315,10.315,0,0,0-2.1-.26A4.836,4.836,0,0,0,693.48,2569.093Zm16.42.081a1.868,1.868,0,0,0-1.458-1.77c.409-.367.918-.61,1.346-.187.833.823,1.573,1.74,2.352,2.618-.062.074-.123.146-.185.221Zm-3.571.251c.349-.313.653-.774,1.292-.34a.752.752,0,0,1-.7.38C706.722,2569.465,706.52,2569.426,706.328,2569.425Zm11.631-1.733.017,0-.008.02A.156.156,0,0,0,717.959,2567.692Zm-9.567-.218h0c-.005.032-.007.046-.007.046S708.388,2567.5,708.392,2567.474Zm.013-.082h0l.038.013a.137.137,0,0,0-.014.012c-.013.02-.024.04-.035.058C708.4,2567.451,708.4,2567.424,708.4,2567.392Zm-8.012-.318.021.009-.011.005ZM694,2565.352l.327-.148c.009.02.018.039.026.059a.513.513,0,0,1,.092.21h0l.027.063-.335.145Zm25.961.035a3.713,3.713,0,0,0-.4-.02c.15-.375.193-.9.471-1.1.879-.635,1.847-1.148,2.638-1.624a2.78,2.78,0,0,1,.63-.262,5.428,5.428,0,0,1,.784.037c-.074.249-.066.6-.233.731-1,.759-2.013,1.507-3.082,2.162a.848.848,0,0,1-.445.1C720.209,2565.408,720.087,2565.4,719.965,2565.387Zm-17.767-.2-.866-1.135-.007,0c.007-.008.013-.013.019-.021l.865,1.137a.173.173,0,0,1,.008.023Zm-5.09-.848a3.709,3.709,0,0,1-1.142-.716c-.185-.242-.058-.723-.069-1.1.094,0,.192-.006.289-.013a1.672,1.672,0,0,1,.609.031c1.517.482,3.022,1,4.531,1.509a2.577,2.577,0,0,1-2,1.029A4.619,4.619,0,0,1,697.108,2564.343Zm6.35-.509.055.023h0l-.005.006Zm-1.826-.812c0-.029.058-.055.091-.082-.005.068-.011.137-.017.231C701.67,2563.1,701.63,2563.062,701.632,2563.022Zm-1.028-.355.388-1.027-.032,1.105Zm13.113-1.769a10.587,10.587,0,0,0,2.064-1.475c1.112-.762,1.714-2.114,3.065-2.58-.012,2.048-2,2.847-2.777,4.449l1.854-1.233c-.767.849-1.3,1.952-2.5,2.206A3.444,3.444,0,0,1,713.717,2560.9Zm-11.312.721a6.41,6.41,0,0,0-1.392-.053c-.506-.98-1.333-1.856-1.008-3.309.975.772,1.863,1.476,2.75,2.18a.061.061,0,0,0,.015.005c-.334-.5-.643-1.027-1.006-1.507-.85-1.122-.859-1.144.3-1.89a6.643,6.643,0,0,1,.595-.307l-.008.019a7.836,7.836,0,0,1,1.885-.947c.289-.062.815.473,1.069.847.564.833,1.025,1.726,1.527,2.6a9.373,9.373,0,0,0-1.6-.4,1.271,1.271,0,0,1-1.2-1.027c-.118-.367-.231-.7-.365-1.148l-.351.059c.124.448.232.975.392,1.42.046.129.093.3.123.425a2.759,2.759,0,0,1,.059.316c0,.014.006.029.008.042a1.529,1.529,0,0,1-.985,1.674l.026.01-.038,0,1.575.313c0,.142,0,.284-.007.426a2.624,2.624,0,0,1-1.366.331A9.206,9.206,0,0,1,702.405,2561.62Zm-1.41-.052h.018l0,.008-.024.066C700.993,2561.616,700.994,2561.592,700.995,2561.567Zm-1.216-.211c-.04,0-.084-.057-.126-.088.014-.052.028-.1.041-.155l.208.147c-.04.035-.08.1-.121.1Zm6.965-.394.016.006-.008.006Zm.4-1.665-.016-.028.027.007.724.813-.008.018Zm1.63-.937c-.044-.011,0-.346,0-.529l-.008.021a13.7,13.7,0,0,1,.426-2.337c.116-.333.673-.51,1.03-.759l.523.76.009-.016c.013,0,.032.014.046.015-.014.006-.018.042-.033.045-.141.993-.28,2.045-.425,3.155C709.921,2558.634,709.339,2558.507,708.777,2558.36Zm-2.748-2.292c1.092.775,1.092.775,1,2.288C706.619,2557.413,706.356,2556.814,706.029,2556.068Zm13.7,1.9.021.006,0,.006Zm-18.119-1.407a.9.9,0,0,0-.1,0l.078-.283.317-.005c-.028.1-.026.232-.089.274a.206.206,0,0,1-.112.024C701.674,2556.564,701.643,2556.562,701.61,2556.559Zm9.145-1.062c.2-.088.557-.248.557-.25l0,.006s-.008-.019-.008-.019l.318-.137a.145.145,0,0,1,.012.018c.317-.136.4-.169.6-.253a2.722,2.722,0,0,1-.446.548c0,.006.025-.011.025-.011s.055-.011-.261.125l-.077.01.032-.014a.512.512,0,0,1-.205.035C711.128,2555.555,710.923,2555.506,710.755,2555.5Zm.916.025-.118,0A.937.937,0,0,1,711.671,2555.522Zm0,0h0Zm.653-.717.018.008-.039.016Z"/></g></svg>