<svg xmlns="http://www.w3.org/2000/svg" width="15" height="17" viewBox="0 0 15 17"><defs><style>.a{fill:#fff;}</style></defs><g transform="translate(-13.655 -13.097)"><path class="a" d="M28.514,22.82a.659.659,0,0,0,0-.814l-.375-.335a.443.443,0,0,0-.375-.192.578.578,0,0,0-.422.192l-5.391,5.553V13.671a.562.562,0,0,0-.164-.407.537.537,0,0,0-.4-.167H20.92a.537.537,0,0,0-.4.167.562.562,0,0,0-.164.407V27.224l-5.391-5.553a.578.578,0,0,0-.422-.192.443.443,0,0,0-.375.192l-.375.335a.676.676,0,0,0-.141.407.577.577,0,0,0,.188.407l6.891,7.133a.677.677,0,0,0,.422.144.577.577,0,0,0,.422-.192Z"/></g></svg>