<svg xmlns="http://www.w3.org/2000/svg" width="107" height="87" viewBox="0 0 107 87"><defs><style>.a,.b{fill:#fff;}.b{stroke:#fff;stroke-width:0.09px;}</style></defs><g transform="translate(-10.884 -22.69)"><path class="a" d="M15.086,92.426l.011,3.528H13.179l-.008-3.613-2.287-4.531h2.174l1.147,2.964,1.325-2.964h2.085Z"/><path class="a" d="M22.077,87.619c2.506,0,3.974,1.9,3.974,4.265a3.989,3.989,0,1,1-3.974-4.265Zm-.01,7.086c1.109,0,1.95-1.036,1.95-2.821s-.841-2.823-1.95-2.823-1.942,1.033-1.942,2.823S20.969,94.705,22.067,94.705Z"/><path class="a" d="M30.04,92.618h-.282l.011,3.337H27.828l.013-8.144H30.79c1.534,0,2.824.449,2.824,2.294a2.031,2.031,0,0,1-1.725,2.051l.057.022a2.38,2.38,0,0,1,.636.708L34.309,95.6l-1.988.448-1.714-3.117A.613.613,0,0,0,30.04,92.618Zm-.282-1.326h.861a.991.991,0,0,0,1.046-1.079c0-.669-.32-1.02-1.086-1.02h-.831Z"/><path class="a" d="M65.641,92.618h-.285l.01,3.337H63.426l.011-8.144h2.948c1.538,0,2.826.449,2.826,2.294a2.032,2.032,0,0,1-1.721,2.051l.052.022a2.364,2.364,0,0,1,.638.708L69.905,95.6l-1.982.448-1.717-3.117A.614.614,0,0,0,65.641,92.618Zm-.286-1.325h.863a.994.994,0,0,0,1.046-1.08c0-.669-.32-1.02-1.09-1.02h-.829Z"/><path class="a" d="M35.805,87.811h1.928l.009,3.732h.022l2.06-3.732,2.226-.01-2.366,3.824,2.552,3.98-1.986.448L37.787,91.9h-.023l.01,4.058H35.792Z"/><path class="a" d="M47.836,89.555a2.979,2.979,0,0,0-1.329-.573c-.917,0-1.206.538-1.206,1.058,0,.328.16.66,1.013.858,1.885.469,2.57,1.442,2.57,2.515,0,2.137-1.693,2.731-3.33,2.731a5.364,5.364,0,0,1-2.409-.622l.877-1.379a4.108,4.108,0,0,0,1.6.533,1.088,1.088,0,0,0,1.163-1.133c0-.751-.759-.882-1.624-1.165a2.137,2.137,0,0,1-1.84-2.237,2.727,2.727,0,0,1,2.944-2.565,5.407,5.407,0,0,1,2.431.7Z"/><path class="a" d="M50.6,87.811h1.927L52.5,91h2.618l-.063-3.187h1.931l-.014,8.144H55.093l.04-3.364H52.507l.06,3.364H50.584Z"/><path class="a" d="M59.3,87.811h1.918L61.2,95.955h-1.92Z"/><path class="a" d="M30.247,101.586l.838-.361,4.463,6.524h.021l.05-6.362h1.013l-.073,7.886-.872.325-4.426-6.583h-.021l-.049,6.421H30.177Z"/><path class="a" d="M43.772,109.178a1.728,1.728,0,0,1-1.084.42.947.947,0,0,1-.863-.966,2.243,2.243,0,0,1-1.747.966,1.589,1.589,0,0,1-1.676-1.676c0-1.641,2.12-2.022,3.39-2.072.008-.24.021-.484.021-.73a.8.8,0,0,0-.886-.872c-.454,0-.825.161-1.676.8l-.384-.6c1.166-.759,1.535-.969,2.377-.969a1.327,1.327,0,0,1,1.456,1.466c0,1.093-.1,2.1-.1,3.127,0,.42.058.826.421.826a.847.847,0,0,0,.488-.2Zm-1.98-2.766c-1.62.211-2.46.507-2.46,1.5a.921.921,0,0,0,1.037.986,1.875,1.875,0,0,0,1.375-.849Z"/><path class="a" d="M45.345,103.645l.024-2.14H46.3l-.025,2.14H47.86v.7H46.266l-.027,2.372c-.009.65-.009,1.081-.009,1.371,0,.478.14.744.532.744a2.026,2.026,0,0,0,.932-.336l.3.6a2.822,2.822,0,0,1-1.457.5c-.894,0-1.244-.56-1.244-1.478,0-.385,0-.861.011-1.663l.024-2.118h-.989v-.7Z"/><path class="a" d="M49.183,103.645h.931l-.045,5.792h-.933Zm-.047-2.258h1v1.048h-1Z"/><path class="a" d="M54.553,103.48c1.7,0,2.716,1.165,2.716,3.059a2.889,2.889,0,0,1-2.832,3.06c-1.7,0-2.713-1.154-2.713-3.06A2.886,2.886,0,0,1,54.553,103.48Zm-.1,5.418c.871,0,1.815-.754,1.815-2.359s-.783-2.36-1.724-2.36c-.872,0-1.816.755-1.816,2.36S53.5,108.9,54.451,108.9Z"/><path class="a" d="M58.937,103.645h.933l-.036.932h.024a2.522,2.522,0,0,1,1.965-1.1c1.343,0,1.772.688,1.772,1.756,0,.442-.011.885-.011,1.326l-.024,2.874h-.932l.023-2.605c0-.513.015-1.024.015-1.6,0-.629-.418-.918-1.062-.918a2.311,2.311,0,0,0-1.734,1.071l-.049,4.047h-.929Z"/><path class="a" d="M70.64,109.178a1.707,1.707,0,0,1-1.082.421.948.948,0,0,1-.86-.967,2.249,2.249,0,0,1-1.746.967,1.589,1.589,0,0,1-1.677-1.676c0-1.641,2.118-2.022,3.388-2.072.011-.24.022-.484.022-.73a.8.8,0,0,0-.882-.872c-.456,0-.829.161-1.677.8l-.387-.6c1.165-.759,1.54-.969,2.376-.969a1.326,1.326,0,0,1,1.456,1.466c0,1.093-.093,2.1-.093,3.127,0,.419.06.825.42.825a.841.841,0,0,0,.488-.2Zm-1.977-2.766c-1.62.211-2.457.507-2.457,1.5a.917.917,0,0,0,1.035.986,1.879,1.879,0,0,0,1.375-.848Z"/><path class="a" d="M71.823,100.716h.93l-.068,8.72h-.933Z"/><path class="a" d="M77.657,101.387h2.435c1.526,0,2.564.779,2.564,2.315,0,1.791-1.538,2.406-2.867,2.406H78.636l-.046,3.328h-1Zm.97,3.954h1.278a1.6,1.6,0,0,0,1.748-1.638c0-.861-.49-1.616-1.794-1.616H78.648Z"/><path class="a" d="M89.145,109.178a1.726,1.726,0,0,1-1.082.421.952.952,0,0,1-.865-.967,2.239,2.239,0,0,1-1.745.967,1.591,1.591,0,0,1-1.678-1.676c0-1.641,2.119-2.021,3.389-2.072.014-.24.025-.484.025-.73a.8.8,0,0,0-.888-.872c-.45,0-.825.161-1.674.8l-.384-.6c1.166-.759,1.537-.969,2.374-.969a1.329,1.329,0,0,1,1.458,1.466c0,1.093-.1,2.1-.1,3.127,0,.419.059.825.42.825a.843.843,0,0,0,.49-.2Zm-1.981-2.766c-1.618.211-2.458.507-2.458,1.5a.919.919,0,0,0,1.037.986,1.874,1.874,0,0,0,1.374-.848Z"/><path class="a" d="M90.445,103.646H91.4l-.012,1.125.023.024a1.92,1.92,0,0,1,1.609-1.315,1.5,1.5,0,0,1,.5.082l-.277.887a1.475,1.475,0,0,0-.362-.059c-.387,0-1,.312-1.5,1.242l-.044,3.8H90.4Z"/><path class="a" d="M94.716,100.716h.919l-.045,5.719,2.98-3.082.617.606-2.446,2.349,2.518,2.788-.737.6-2.933-3.232-.035,2.978h-.909Z"/><path class="a" d="M116.836,89.555a2.97,2.97,0,0,0-1.33-.573c-.917,0-1.2.538-1.2,1.058,0,.328.159.66,1.014.858,1.884.469,2.568,1.443,2.568,2.516,0,2.136-1.689,2.73-3.33,2.73a5.347,5.347,0,0,1-2.406-.622l.878-1.379a4.1,4.1,0,0,0,1.595.533,1.09,1.09,0,0,0,1.163-1.133c0-.751-.759-.882-1.624-1.165a2.136,2.136,0,0,1-1.839-2.238,2.724,2.724,0,0,1,2.942-2.565,5.43,5.43,0,0,1,2.434.7Z"/><path class="a" d="M71.206,87.811h5.146l-.173,1.64H73.161l0,1.562h2.152v1.453H73.154l-.008,1.829,3.252-.05.177,1.711H71.194Z"/><path class="a" d="M105.379,87.811h5.147l-.174,1.64h-3.018l.005,1.562h2.152v1.453h-2.163l-.005,1.829,3.249-.05.177,1.711h-5.381Z"/><path class="a" d="M81.53,87.811h3.05A3.769,3.769,0,0,1,88.554,91.8c0,3.131-2.013,4.156-3.974,4.156H81.53Zm1.97,6.647h.636c1.525,0,2.336-.917,2.336-2.608,0-1.886-1-2.6-2.423-2.6H83.5Z"/><path class="a" d="M92.147,87.811h2.2l2.85,8.144H95l-.617-1.987H91.945l-.63,1.987H89.24Zm.215,4.706h1.68l-.86-3-.025.056Z"/><path class="a" d="M98.608,95.955h5.381l-.177-1.712-3.287.05.013-6.483H98.619Z"/><path class="b" d="M98.969,29.81a2.662,2.662,0,1,1,2.668-2.659A2.66,2.66,0,0,1,98.969,29.81Zm0-4.977a2.314,2.314,0,1,0,2.32,2.318A2.318,2.318,0,0,0,98.969,24.834Zm.806,3.7a.176.176,0,0,1-.166-.119l-.217-.729a.52.52,0,0,0-.529-.391h-.411v1.066a.168.168,0,0,1-.174.174.165.165,0,0,1-.175-.174V25.747h1.08a.687.687,0,0,1,.685.737.845.845,0,0,1-.371.717.921.921,0,0,1,.231.39l.216.723a.179.179,0,0,1,.006.056A.175.175,0,0,1,99.776,28.538ZM99.183,26.1h-.731v.849h.662a.426.426,0,0,0,.405-.467A.337.337,0,0,0,99.183,26.1Z"/><path class="a" d="M46.6,47.471c-.036-.1-.075-.2-.115-.3a32.163,32.163,0,0,0-1.74-4.077,8.3,8.3,0,0,0-3.3-4.159c-.56-.415-.932-.911-1.576-1.058-1.033-.63-2.037-1.307-3.056-1.945a21.027,21.027,0,0,0-2.666-1.427c-1.037-1.014-2.4-.975-3.691-1.45a24.286,24.286,0,0,0-5.318.076A8.464,8.464,0,0,0,21.3,34.3a8.616,8.616,0,0,0-1.245.933c-.292.265-.483.152-.713.472-.126.208-.337.81-.471,1.014a8.906,8.906,0,0,0-1.7,5.638,11.042,11.042,0,0,0,1.317,5.118c.214.5.431.988.635,1.483-.2.518,1.191,2.339,1.191,2.339l-.2-1.282a34.323,34.323,0,0,1,0-7.265,32.564,32.564,0,0,1,1.5-4.367c.6-.393,1.531-.686,1.838-1.161a3.392,3.392,0,0,1,2.137-.369,5.438,5.438,0,0,1,1.957.226,8.026,8.026,0,0,1,1.08.682,5.121,5.121,0,0,1,2.335,1.368c.847.847,1.742,1.592,2.529,2.545.746,1.717,2.321,3.108,2.838,4.9a75.285,75.285,0,0,1,2.135,11.138c-.475.163-.323.923-.508,1.308-.065-.25-.527-.274-.674-.274a13,13,0,0,1-2.732-2.879c.005-2.009-.777-1.235-1.275-3.5l.373.433c.343.283.278-.028.563.283.217.53,1.231,1.2,1.769,2,.31.189.58-.29.7-.5a12.6,12.6,0,0,0-1.138-5.295,27.1,27.1,0,0,0-.746-3.212,5.892,5.892,0,0,1-.852-1.038,8.761,8.761,0,0,0-1.7-1.8c-.436-.395-.37-.879-.868-1.269-.268-.064-.816-1.383-1.235-1.308-.045.006-.008,1.47,0,3.541.006.511-.008,1.262.158,1.384.21.472-.188,1.437-.143,1.879.389,3.739,1.017,7.5,3,10.591A12.041,12.041,0,0,0,35.806,61.6a19.416,19.416,0,0,0,1.578,1.529c.645.5,2.273-.042,3,.29a17.309,17.309,0,0,0,1.983.086c.189-.135.174-.553.323-.929.109-.324.2-.658.29-1,.281-1.153.409-3.488.7-4.6a8.7,8.7,0,0,1-.124-1.941c.315-.509.371-1.328.6-1.7.062.365.235,2.195.476,3.5a7.02,7.02,0,0,0,.192,1.694,7.036,7.036,0,0,0-.143,2.777c.182,0,.339.347.4.54.715-1.143,2.08-2.759,2.406-4.036C47.621,54.241,47.782,50.6,46.6,47.471Z"/><path class="a" d="M81.158,47.471c-.434,3.145-.873,6.583-.2,9.682a12.557,12.557,0,0,0,.85,3.186A5.042,5.042,0,0,0,83.258,61.6a4.047,4.047,0,0,1,.584.514l1.141.352a1.557,1.557,0,0,1-.32-.866,6.169,6.169,0,0,1-.057-1.126c-.123-1.161-.7-1.839-.619-3.017.537-1.324.413-3.465,1-4.773a2.259,2.259,0,0,0,.415,1.338c.086,2.132-.33,4.6.748,6.56.087.3.213.658.35,1.019a4.458,4.458,0,0,0,.891,1.649,3.7,3.7,0,0,0,1.823-.036A4.615,4.615,0,0,0,92.453,61.6a20.517,20.517,0,0,0,1.693-2.052c.914-1.449,2.216-2.859,2.589-4.535A35.4,35.4,0,0,0,98,47.471c.022-.475.027-.954.022-1.433a10.681,10.681,0,0,0-.219-1.909c-.072-.846.277-1.7-.032-2.466-.156-.229-.392-.461-.31-.769-.082,0-.156,0-.208.094a8.944,8.944,0,0,1-2.525,2.161c-.736,1.349-2.041,3.027-1.8,3.959-.185.411-1.008,1.582-1.144,2.03-.6,1.951-.233,3.272-.422,5.346a1,1,0,0,0,.35.992c.522.062.5-.54.75-.805.252-.562.686-1.038.888-1.636A2.266,2.266,0,0,1,94.4,52.5l-.295.674a33.413,33.413,0,0,1-1.49,3.481c-.478.368-.6,1.217-1.2,1.34-.29.478-.882.585-1.225.864-.967-1.212-.289-2.62-.516-3.943.352-1.036.331-2.236.6-3.314.194-1.159-.011-1.913.275-3.027.316-1.231,1.128-2.819,1.511-4.021.084-.25.166-.5.251-.755.246-.415.142-1.034.351-1.387.9-.8,1.823-1.666,2.783-2.5A29.686,29.686,0,0,1,97.9,37.96c.447-.316.9-.6,1.362-.866a4.624,4.624,0,0,1,1.388-.2,5.676,5.676,0,0,1,1.959.1,11.248,11.248,0,0,1,1.672.641l.356.063a7.509,7.509,0,0,0,1.21.684,10.7,10.7,0,0,1,1.014,1.878c.219.556.7,1.255.647,1.752.2,1.14.421,2.35.5,3.531a32.922,32.922,0,0,1-.229,5.4c-.106.123,0,.674-.335,1.092a4.6,4.6,0,0,0-.744,1.572c.061-.224.386-.312.617-.466a10.809,10.809,0,0,0,1.464-1.693,1.663,1.663,0,0,0,.3-.531s.625-1.556.419-1.492a5.232,5.232,0,0,1,.7-1.954,2.965,2.965,0,0,0,.111-.3,22.907,22.907,0,0,0,.993-5.919,13,13,0,0,0-1.276-3.486,9.758,9.758,0,0,0-1.928-2.34,4.263,4.263,0,0,0-1.637-1.271c-2.011-.934-4.7-.654-6.846-1.068a15.559,15.559,0,0,0-4.731.715,2.472,2.472,0,0,0-.246.661A29.115,29.115,0,0,0,90.524,36.1c-1.081,1.1-2.5,1.469-3.592,2.526-3,2.213-4.167,5.712-5.763,8.754,0,.03-.007.064-.011.089"/><path class="a" d="M86.959,36.045a11.984,11.984,0,0,0-.693-3.237c-.853-.693-.926-2.155-1.681-2.943-.543-.559-1.08-1.086-1.528-1.606a15.07,15.07,0,0,0-2.239-2.051c-.191-.27-.561-.145-.645-.5-.62-.041-1.1-.56-1.659-.85a6,6,0,0,1-.757-.828,14.521,14.521,0,0,1,1.569-1.095,33.7,33.7,0,0,1,6.759,1.531c.642-.064,1.2.372,1.8.559.932.166,1.516,1.138,2.279,1.738,1.661,1.078,1.339,1.473,2.995,2.694l2.056,1.447a2.168,2.168,0,0,1,.9,1.184,2.568,2.568,0,0,1-1.223.429c-1.638.56-1.449,1.673-4.684,2.132-.87.375-2.065,1.523-2.935,2.039a1.86,1.86,0,0,0-.3-.445"/><path class="a" d="M40.2,36.163a2.352,2.352,0,0,1,.611-1.7,16.973,16.973,0,0,0,1.478-2.27c.316-.459.639-.914.967-1.375-.08-.309-.389-.472-.876-.941.744-.6,1.955-1.085,2.723-1.71.509-.036,1.467-1.2,1.714-1.651.575-.472,1.255-.782,1.822-1.246q.92-.759,1.809-1.489c-.219-.184-.349-.5-.554-.624a7.666,7.666,0,0,1-2.367-.47c-.308.1-.809-.022-1.181.1-1.017.373-2.05.639-3.045,1.076a1.287,1.287,0,0,1-.787.312c-.189.208-.544.184-.747.391a9.141,9.141,0,0,0-3.839,2.28c-1.512,1.115-4.786,4.977-6.193,5.187a8,8,0,0,1,2.778.77,21.371,21.371,0,0,0,2.312,1.539c1.236.694,1.312.463,2.006,1.078C39.209,35.77,40.162,35.735,40.2,36.163Z"/><path class="a" d="M78.184,35.224c.311.127.374.757.683.922.165.27.507.887.385,1.259-.063-.021-.159.53-.2.57l.043.147c-.412.185-.279.713-.744.838-.342-.528-.614-.766-.9-.808a3.675,3.675,0,0,1-.921.371c-.454.185-1.057,0-1.325.454-.226-.021-.226.228-.352.352-.623.313-.767,1.12-1.39,1.534l-.216.11c0,.353-.219.2-.281.491-.085.08-.217.076-.311.389a5.932,5.932,0,0,1,.374-2.384,11.973,11.973,0,0,1,.374-1.854,7.5,7.5,0,0,1,1.492-1.572C75.593,34.632,77,35.2,78.184,35.224Z"/><path class="a" d="M52.85,35.566a12.515,12.515,0,0,1,1.993,1.9,13.8,13.8,0,0,0,.25,1.747c.139.673.3,1.551.391,2.094s.115.942-.025.994l-.266-.408c-.828-.994-1.513-2.173-2.384-3.145-.31-.084-1.028-.614-1.339-.365-.393-.08-.516.4-.951.477a.887.887,0,0,1-1.109-.506c-.27-.1-.352-.351-.582-.538A4.189,4.189,0,0,1,51.212,35Z"/><path class="a" d="M50.182,42.146a3.457,3.457,0,0,0,1.287,1.147c.268-.165.917.146,1.183.125.562.052,1.052-.445,1.479-.472.342.759.494.136.711.683.248.7-.415,1.479-.538,2.161-.33.62-.874,1.431-1.7,1.387-1.224.434-1.662-.955-2.6-1.387-.744-.745-.7-2.041-.784-2.994l-.244-1.8A3.529,3.529,0,0,1,50.182,42.146Z"/><path class="a" d="M77.133,43.437c.317-.2.553-.748.836-1s.541-.5.753-.68c-.093,1.057.145,3.024-.453,4.062-.832.348-1.5,1.3-2.426,1.28-.291.225-.684-.021-.953.039A23.33,23.33,0,0,1,73.106,43.7c.039-.394.472.027.74-.219.21.184.549-.256.8-.163a7.1,7.1,0,0,0,1.119.187A1.775,1.775,0,0,0,77.133,43.437Z"/><path class="a" d="M68.677,71.523c-.216.189-.446.376-.549.467-.414.559-1.3.748-1.8,1.229-1.34.368-1.563.031-2.6-.05a1.311,1.311,0,0,1-.774.233c-.19-.312-.564-.189-.855-.29-.931-.6-1.527-1-2.481-1.534.063-.165-.459-.561-.439-.708.27.055.394-.175,1.141.149.318.114.95.514,1.274.616a7.374,7.374,0,0,0,1.213.312c.349-.87.806-2,.207-2.917a23.54,23.54,0,0,1-1.6-2.046,7.762,7.762,0,0,0-.739-.843,3.418,3.418,0,0,0-1.1-.751c-.11-.328-.316-.381-.488-.687a1.639,1.639,0,0,1-.157-.406c.242.033.415-.1.736.052.6.287,1.131.865,1.592,1.027.794-.1,1.527.629,2.3.608a4.3,4.3,0,0,0,2.332-.091,3.747,3.747,0,0,0,.978-.333A5.342,5.342,0,0,0,67.632,65a6.3,6.3,0,0,1,.856-.654c.51-.259.564-.048,1.038-.078l-.323.487c-.063.66-.513.544-.781,1.086a8.433,8.433,0,0,0-.974.881c-.324.328-.643.667-.954.958-.435.745-1.351,1.183-1.6,1.987a10.6,10.6,0,0,0,.459,2.3,7.691,7.691,0,0,0,1.832-.394c.3-.092.811-.449,1.119-.517.167-.252.633-.092.881-.006a6.046,6.046,0,0,1-.561.523h2.736a11.566,11.566,0,0,0,2.1-3.544c.867-1.447.749-3.127,1.576-4.573.185-.637.48-1.239.7-1.861a4.325,4.325,0,0,0,.293-2.052c-.5-1.208-.486-2.71-1.137-3.879a19.255,19.255,0,0,0-2.163-2.015c-.543-.545-.827-1.282-1.577-1.669a6.337,6.337,0,0,1-2.614-2.66c0-.373-1.487-1.146-2.046-1.556-1.5-.232-4.259.11-4.586.487a7.733,7.733,0,0,0-2.193.693,2.113,2.113,0,0,0-.831,1.575A20.944,20.944,0,0,0,57.328,52.1a5.124,5.124,0,0,1-1.948,1.731,13.037,13.037,0,0,0-2.488,2.178,22.325,22.325,0,0,0-.435,3.129c.169.484.316.977.451,1.472a10.344,10.344,0,0,0,.38.994,6.442,6.442,0,0,1,.345.927c.258,1.08.132,1.642.453,2.7a12.781,12.781,0,0,0,1.541,3.407c.21,1.552,1.362,3.112,2.171,4.419,1.114,1.977,2.632,1.654,3.687,2.521.38.313,1.305.306,1.924.513a4.106,4.106,0,0,0,1.955-.1c.307-.1.614-.2.876-.291a19.435,19.435,0,0,0,2.679-1.3c.822-.977,1.705-1.89,2.5-2.87Z"/></g></svg>