<svg xmlns="http://www.w3.org/2000/svg" width="69.001" height="102" viewBox="0 0 69.001 102"><defs><style>.a{fill:none;stroke:#000;stroke-linejoin:round;stroke-width:2.618px;}.b{fill:#fff;}</style></defs><g transform="translate(-1034.999 -5017)"><g transform="translate(771.588 4339.176)"><path d="M302.279,779.824h-8.734a1.309,1.309,0,0,1-1.31-1.308V745.388a1.309,1.309,0,0,1,1.31-1.308h8.734a1.309,1.309,0,0,1,1.31,1.308v33.128A1.309,1.309,0,0,1,302.279,779.824Zm-7.424-2.615h6.114V746.7h-6.114Z"/><path d="M327.609,746.7H268.216a4.8,4.8,0,0,1-4.8-4.795V682.619a4.8,4.8,0,0,1,4.8-4.795h59.392a4.8,4.8,0,0,1,4.8,4.795V741.9A4.8,4.8,0,0,1,327.609,746.7Zm-59.392-66.256a2.183,2.183,0,0,0-2.184,2.18V741.9a2.183,2.183,0,0,0,2.184,2.18h59.392a2.184,2.184,0,0,0,2.184-2.18V682.619a2.184,2.184,0,0,0-2.184-2.18Z"/><path class="a" d="M282.291,733.753V690.768H301.3c10.336.061,15.564,8.044,15.441,16.151-.061,7.86-5.228,15.719-15.441,15.719H293.55v11.115ZM301.3,712.875c2.953,0,4.675-3.131,4.675-6.265,0-3.07-1.6-6.078-4.675-6.078h-7.937v12.343Z"/></g><path class="b" d="M1065.133,5119a1.309,1.309,0,0,1-1.31-1.308v-31.821H1039.8a4.806,4.806,0,0,1-4.8-4.794v-59.283a4.805,4.805,0,0,1,4.8-4.794H1099.2a4.8,4.8,0,0,1,4.8,4.794v59.283a4.805,4.805,0,0,1-4.8,4.794h-24.019v31.821a1.308,1.308,0,0,1-1.31,1.308Zm1.31-2.615h6.113v-30.513h-6.113Zm-28.823-94.59v59.283a2.185,2.185,0,0,0,2.184,2.18H1099.2a2.184,2.184,0,0,0,2.184-2.18v-59.283a2.183,2.183,0,0,0-2.184-2.179H1039.8A2.184,2.184,0,0,0,1037.62,5021.794Zm16.259,51.135v-42.985h19.011c10.337.059,15.564,8.043,15.441,16.15-.062,7.86-5.227,15.72-15.441,15.72h-7.753v11.115Zm11.073-20.879h7.938c2.952,0,4.675-3.132,4.675-6.264,0-3.071-1.6-6.078-4.675-6.078h-7.938Z"/></g></svg>