<svg xmlns="http://www.w3.org/2000/svg" width="96.002" height="97" viewBox="0 0 96.002 97"><defs><style>.a{fill:#fff;}</style></defs><g transform="translate(-1293.999 -5019)"><g transform="translate(1016.683 4076.328)"><path d="M309.078,1039.672a32.005,32.005,0,1,1,31.762-32A31.918,31.918,0,0,1,309.078,1039.672Zm0-61.282a29.279,29.279,0,1,0,29.056,29.28A29.2,29.2,0,0,0,309.078,978.39Z"/><path d="M361.423,1039.672a11.984,11.984,0,1,1,11.894-11.984A11.952,11.952,0,0,1,361.423,1039.672Zm0-21.242a9.259,9.259,0,1,0,9.189,9.258A9.234,9.234,0,0,0,361.423,1018.43Z"/><path d="M361.423,1032.874a5.186,5.186,0,1,1,5.146-5.187A5.173,5.173,0,0,1,361.423,1032.874Zm0-7.646a2.46,2.46,0,1,0,2.44,2.459A2.454,2.454,0,0,0,361.423,1025.229Z"/><path d="M309.078,1031.9a24.235,24.235,0,1,1,24.05-24.234A24.171,24.171,0,0,1,309.078,1031.9Zm0-45.743a21.509,21.509,0,1,0,21.345,21.509A21.452,21.452,0,0,0,309.078,986.161Z"/><path d="M309.078,1016.123a8.454,8.454,0,1,1,8.39-8.454A8.432,8.432,0,0,1,309.078,1016.123Zm0-14.181a5.728,5.728,0,1,0,5.684,5.728A5.712,5.712,0,0,0,309.078,1001.942Z"/><path d="M361.518,1017.147h-2.705V992.66a8.328,8.328,0,0,0-8.285-8.352H327.041v-2.725h23.486a11.045,11.045,0,0,1,10.991,11.076Z"/><rect width="23.153" height="2.726" transform="translate(337.013 994.186)"/><path d="M304.629,978.088h-2.705V953.429l-8.76-8.831,1.911-1.926,9.158,9.229a1.362,1.362,0,0,1,.4.964Z"/><path d="M340.688,972.331H303.276a1.358,1.358,0,0,1-1.353-1.363v-10.1a1.36,1.36,0,0,1,1.353-1.364h27.386a11.437,11.437,0,0,1,11.379,11.469A1.358,1.358,0,0,1,340.688,972.331ZM304.629,969.6h34.6a8.707,8.707,0,0,0-8.568-7.38H304.629Z"/></g><path class="a" d="M1366.212,5104.016a11.987,11.987,0,0,1,9.283-11.693v-19.082h-19.818a31.732,31.732,0,1,1-37.07-20.43v-23.053l-8.76-8.831,1.912-1.926,9.157,9.229a1.361,1.361,0,0,1,.4.964v6.634h26.032a11.437,11.437,0,0,1,11.38,11.468,1.359,1.359,0,0,1-1.352,1.364h-36.06v3.645a31.757,31.757,0,0,1,4.449-.312,31.423,31.423,0,0,1,18.384,5.919h23.065a11.045,11.045,0,0,1,10.991,11.077v23.044a11.984,11.984,0,1,1-11.988,11.983Zm2.705,0a9.189,9.189,0,1,0,9.189-9.257A9.235,9.235,0,0,0,1368.917,5104.016ZM1296.7,5084a29.058,29.058,0,1,0,29.057-29.279A29.2,29.2,0,0,0,1296.7,5084Zm57.861-13.484h20.93v-1.525a8.327,8.327,0,0,0-8.285-8.352h-19.759A32.155,32.155,0,0,1,1354.565,5070.514Zm-33.253-24.58h34.6a8.707,8.707,0,0,0-8.569-7.38h-26.032Zm51.647,58.082a5.146,5.146,0,1,1,5.147,5.187A5.173,5.173,0,0,1,1372.959,5104.016Zm2.7,0a2.441,2.441,0,1,0,2.443-2.459A2.454,2.454,0,0,0,1375.663,5104.016ZM1301.712,5084a24.05,24.05,0,1,1,24.05,24.234A24.17,24.17,0,0,1,1301.712,5084Zm2.705,0a21.345,21.345,0,1,0,21.344-21.509A21.452,21.452,0,0,0,1304.417,5084Zm12.955,0a8.39,8.39,0,1,1,8.389,8.454A8.431,8.431,0,0,1,1317.372,5084Zm2.705,0a5.684,5.684,0,1,0,5.684-5.728A5.713,5.713,0,0,0,1320.077,5084Z"/></g></svg>